<?xml version="1.0" encoding="UTF-8" standalone="no"?>
<!DOCTYPE svg PUBLIC "-//W3C//DTD SVG 1.1//EN" "http://www.w3.org/Graphics/SVG/1.1/DTD/svg11.dtd">

<!-- Created with Vectornator (http://vectornator.io/) -->
<svg height="100%" stroke-miterlimit="10" style="fill-rule:nonzero;clip-rule:evenodd;stroke-linecap:round;stroke-linejoin:round;" version="1.1" viewBox="0 0 256 244" width="100%" xml:space="preserve" xmlns="http://www.w3.org/2000/svg" xmlns:vectornator="http://vectornator.io" xmlns:xlink="http://www.w3.org/1999/xlink">
<metadata>
<vectornator:setting key="IsTimeLapseWatermarkDisabled" value="false"/>
<vectornator:setting key="UndoHistoryDisabled" value="true"/>
<vectornator:setting key="VNDimensionsVisible" value="true"/>
<vectornator:setting key="VNSnapToGuides" value="true"/>
<vectornator:setting key="WDCMYKEnabledKey" value="false"/>
<vectornator:setting key="WDDisplayWhiteBackground" value="false"/>
<vectornator:setting key="WDDynamicGuides" value="false"/>
<vectornator:setting key="WDGuidesVisible" value="true"/>
<vectornator:setting key="WDIsolateActiveLayer" value="false"/>
<vectornator:setting key="WDOutlineMode" value="false"/>
<vectornator:setting key="WDRulersVisible" value="true"/>
<vectornator:setting key="WDSnapToEdges" value="false"/>
<vectornator:setting key="WDSnapToGrid" value="false"/>
<vectornator:setting key="WDSnapToPoints" value="false"/>
<vectornator:setting key="WDUnits" value="Points"/>
</metadata>
<defs>
<linearGradient gradientTransform="matrix(1 0 0 1 0.81 0)" gradientUnits="userSpaceOnUse" id="LinearGradient" x1="1249.93" x2="1249.93" y1="-465.066" y2="3088.96">
<stop offset="0" stop-color="#0994dc"/>
<stop offset="1" stop-color="#66cef5"/>
<stop offset="1" stop-color="#66cef5"/>
<stop offset="1" stop-color="#127bca"/>
<stop offset="1" stop-color="#127bca"/>
<stop offset="1" stop-color="#127bca"/>
</linearGradient>
<linearGradient gradientTransform="matrix(1 0 0 1 0.81 0)" gradientUnits="userSpaceOnUse" id="LinearGradient_2" x1="1250.03" x2="1250.03" y1="-465.066" y2="3088.94">
<stop offset="0" stop-color="#0e76bc"/>
<stop offset="1" stop-color="#36aee8"/>
<stop offset="1" stop-color="#36aee8"/>
<stop offset="1" stop-color="#00adef"/>
<stop offset="1" stop-color="#00adef"/>
<stop offset="1" stop-color="#00adef"/>
</linearGradient>
<linearGradient gradientTransform="matrix(1 0 0 1 0.81 0)" gradientUnits="userSpaceOnUse" id="LinearGradient_3" x1="1249.98" x2="1249.98" y1="2643.27" y2="-148.08">
<stop offset="0" stop-color="#1c63b7"/>
<stop offset="1" stop-color="#33bdf2"/>
<stop offset="1" stop-color="#33bdf2" stop-opacity="0.42"/>
</linearGradient>
<linearGradient gradientTransform="matrix(1 0 0 1 0.81 0)" gradientUnits="userSpaceOnUse" id="LinearGradient_4" x1="1250.03" x2="1250.03" y1="-465.042" y2="3089.01">
<stop offset="0" stop-color="#166ab8"/>
<stop offset="1" stop-color="#36aee8"/>
<stop offset="1" stop-color="#36aee8"/>
<stop offset="1" stop-color="#0798dd"/>
<stop offset="1" stop-color="#0798dd"/>
<stop offset="1" stop-color="#0798dd"/>
</linearGradient>
<linearGradient gradientTransform="matrix(1 0 0 1 0.81 0)" gradientUnits="userSpaceOnUse" id="LinearGradient_5" x1="1249.98" x2="1249.98" y1="-465.185" y2="3089.01">
<stop offset="0" stop-color="#124379"/>
<stop offset="1" stop-color="#1487cb"/>
<stop offset="1" stop-color="#1487cb"/>
<stop offset="1" stop-color="#165197"/>
<stop offset="1" stop-color="#165197"/>
<stop offset="1" stop-color="#165197"/>
</linearGradient>
<linearGradient gradientTransform="matrix(1 0 0 1 0.81 0)" gradientUnits="userSpaceOnUse" id="LinearGradient_6" x1="0" x2="2500" y1="1191.52" y2="1191.52">
<stop offset="0" stop-color="#33bdf2" stop-opacity="0.698"/>
<stop offset="1" stop-color="#1dacd8"/>
</linearGradient>
<linearGradient gradientTransform="matrix(1 0 0 1 0.81 0)" gradientUnits="userSpaceOnUse" id="LinearGradient_7" x1="1250.25" x2="1250.25" y1="2256.37" y2="-72.0858">
<stop offset="0" stop-color="#136ab4"/>
<stop offset="1" stop-color="#59caf5" stop-opacity="0.549"/>
<stop offset="1" stop-color="#59caf5" stop-opacity="0.235"/>
</linearGradient>
<linearGradient gradientTransform="matrix(1 0 0 1 0.81 0)" gradientUnits="userSpaceOnUse" id="LinearGradient_8" x1="-0.025" x2="2499.97" y1="1191.5" y2="1191.5">
<stop offset="0" stop-color="#05a1e6" stop-opacity="0.247"/>
<stop offset="1" stop-color="#05a1e6"/>
</linearGradient>
<linearGradient gradientTransform="matrix(1 0 0 1 0.81 0)" gradientUnits="userSpaceOnUse" id="LinearGradient_9" x1="1249.95" x2="1249.95" y1="2962.4" y2="-224.502">
<stop offset="0" stop-color="#318ed5"/>
<stop offset="1" stop-color="#38a7e4"/>
</linearGradient>
<linearGradient gradientTransform="matrix(1 0 0 1 0.81 0)" gradientUnits="userSpaceOnUse" id="LinearGradient_10" x1="1249.98" x2="1249.98" y1="2173.3" y2="-1829.79">
<stop offset="0" stop-color="#05a1e6"/>
<stop offset="1" stop-color="#05a1e6" stop-opacity="0.549"/>
</linearGradient>
<linearGradient gradientTransform="matrix(1 0 0 1 0.81 0)" gradientUnits="userSpaceOnUse" id="LinearGradient_11" x1="1250" x2="1250" y1="2383.24" y2="0.2383">
<stop offset="0" stop-color="#1959a6"/>
<stop offset="1" stop-color="#05a1e6"/>
<stop offset="1" stop-color="#05a1e6"/>
<stop offset="1" stop-color="#7ec5ea"/>
<stop offset="1" stop-color="#7ec5ea"/>
</linearGradient>
<linearGradient gradientTransform="matrix(1 0 0 1 0.81 0)" gradientUnits="userSpaceOnUse" id="LinearGradient_12" x1="1495.1" x2="961.775" y1="2253.56" y2="137.142">
<stop offset="0" stop-color="#165096"/>
<stop offset="1" stop-color="#0d82ca"/>
</linearGradient>
<linearGradient gradientTransform="matrix(1 0 0 1 0.81 0)" gradientUnits="userSpaceOnUse" id="LinearGradient_13" x1="1249.88" x2="1249.88" y1="1834.86" y2="-78.6152">
<stop offset="0" stop-color="#05a1e6"/>
<stop offset="1" stop-color="#0495d6"/>
<stop offset="1" stop-color="#0495d6"/>
</linearGradient>
<linearGradient gradientTransform="matrix(1 0 0 1 0.81 0)" gradientUnits="userSpaceOnUse" id="LinearGradient_14" x1="1631.58" x2="856.575" y1="-99.1566" y2="2522.26">
<stop offset="0" stop-color="#38a7e4" stop-opacity="0.329"/>
<stop offset="1" stop-color="#0e88d3"/>
<stop offset="1" stop-color="#0e88d3"/>
<stop offset="1" stop-color="#0e88d3"/>
</linearGradient>
<linearGradient gradientTransform="matrix(1 0 0 1 0.81 0)" gradientUnits="userSpaceOnUse" id="LinearGradient_15" x1="1250.42" x2="1250.42" y1="-7.05368" y2="2427.85">
<stop offset="0" stop-color="#168cd4"/>
<stop offset="1" stop-color="#1c87cc"/>
<stop offset="1" stop-color="#154b8d"/>
</linearGradient>
<linearGradient gradientTransform="matrix(1 0 0 -1 0.81 8.541)" gradientUnits="userSpaceOnUse" id="LinearGradient_16" x1="416.85" x2="2195.32" y1="4898.61" y2="-472.692">
<stop offset="0" stop-color="#97d6ee"/>
<stop offset="1" stop-color="#55c1ea"/>
<stop offset="1" stop-color="#55c1ea"/>
</linearGradient>
<linearGradient gradientTransform="matrix(1 0 0 -1 0.81 11.776)" gradientUnits="userSpaceOnUse" id="LinearGradient_17" x1="172.25" x2="1894.57" y1="150.129" y2="2782.65">
<stop offset="0" stop-color="#7accec"/>
<stop offset="1" stop-color="#3fb7ed"/>
</linearGradient>
<linearGradient gradientTransform="matrix(1 0 0 1 0.81 0)" gradientUnits="userSpaceOnUse" id="LinearGradient_18" x1="1249.93" x2="1249.93" y1="151.63" y2="3049.31">
<stop offset="0" stop-color="#1da7e7"/>
<stop offset="1" stop-color="#37abe7" stop-opacity="0"/>
</linearGradient>
</defs>
<g id="Untitled" vectornator:layerName="Untitled">
<path d="M214.27 128.006C214.27 127.576 214.151 127.269 213.91 127.069C213.641 126.853 213.177 126.738 212.531 126.738L211.603 126.738L211.603 129.29L212.723 129.29C213.758 129.29 214.269 128.86 214.269 128.006L214.27 128.006ZM215.717 133.326L214.441 133.326L213.627 131.531C213.214 130.631 212.772 130.181 212.29 130.181L211.603 130.181L211.603 133.326L210.551 133.326L210.551 125.842L212.658 125.842C213.594 125.842 214.298 126.045 214.78 126.468C215.19 126.832 215.394 127.298 215.394 127.878C215.394 128.394 215.227 128.828 214.891 129.188C214.564 129.551 214.093 129.797 213.492 129.924L213.492 129.956C213.909 130.054 214.326 130.512 214.732 131.338L215.717 133.33C215.717 133.33 215.717 133.326 215.717 133.326ZM218.047 129.658C218.047 128.185 217.545 126.942 216.543 125.956C215.537 124.971 214.31 124.476 212.863 124.476C211.369 124.476 210.126 124.971 209.141 125.965C208.155 126.963 207.664 128.198 207.664 129.658C207.664 131.151 208.176 132.398 209.19 133.392C210.192 134.385 211.419 134.876 212.862 134.876C214.298 134.876 215.524 134.381 216.535 133.375C217.545 132.385 218.048 131.142 218.048 129.658L218.047 129.658ZM218.755 129.625C218.755 131.278 218.187 132.665 217.046 133.78C215.905 134.905 214.506 135.465 212.834 135.465C211.149 135.465 209.75 134.913 208.638 133.829C207.525 132.729 206.973 131.347 206.973 129.67C206.973 128.03 207.538 126.652 208.666 125.52C209.795 124.39 211.202 123.827 212.883 123.827C214.531 123.827 215.913 124.367 217.033 125.442C218.183 126.546 218.755 127.936 218.755 129.625ZM58.8 150.495L55.172 150.495L55.172 129.735C55.172 128.095 55.28 126.1 55.472 123.745L55.392 123.745C55.052 125.122 54.741 126.12 54.467 126.738L43.924 150.495L42.157 150.495L31.593 126.91C31.296 126.251 30.984 125.192 30.669 123.744L30.591 123.744C30.701 124.984 30.764 126.992 30.764 129.776L30.764 150.495L27.267 150.495L27.267 119.58L32.052 119.58L41.536 141.136C42.252 142.76 42.714 143.996 42.939 144.838L43.089 144.838C43.707 143.148 44.197 141.881 44.569 141.046L54.258 119.58L58.798 119.58L58.798 150.494L58.799 150.494L58.8 150.495ZM69.957 150.494L66.432 150.494L66.432 128.418L69.957 128.418L69.957 150.494ZM70.567 120.504C70.567 121.154 70.337 121.698 69.884 122.144C69.438 122.59 68.886 122.814 68.24 122.814C67.61 122.814 67.062 122.599 66.612 122.169C66.162 121.735 65.942 121.183 65.942 120.504C65.942 119.866 66.164 119.322 66.612 118.881C67.043 118.45 67.6308 118.214 68.24 118.226C68.886 118.226 69.438 118.439 69.884 118.881C70.338 119.322 70.567 119.866 70.567 120.504ZM91.988 149.472C90.295 150.511 88.274 151.026 85.939 151.026C82.774 151.026 80.226 149.976 78.279 147.877C76.389 145.841 75.437 143.211 75.437 139.988C75.437 136.373 76.472 133.445 78.557 131.22C80.631 128.991 83.42 127.879 86.929 127.879C88.847 127.879 90.549 128.255 92.037 128.999L92.037 132.627C90.389 131.47 88.647 130.897 86.777 130.897C84.528 130.897 82.7 131.682 81.281 133.249C79.805 134.852 79.056 136.995 79.056 139.669C79.056 142.238 79.739 144.27 81.097 145.771C82.459 147.264 84.271 148.012 86.557 148.012C88.487 148.012 90.295 147.378 91.987 146.115L91.987 149.472L91.988 149.472ZM108.85 132C108.228 131.521 107.332 131.288 106.15 131.288C104.715 131.288 103.508 131.93 102.531 133.226C101.423 134.674 100.871 136.678 100.871 139.238L100.871 150.493L97.337 150.493L97.337 128.417L100.871 128.417L100.871 132.969L100.956 132.969C101.476 131.357 102.277 130.118 103.348 129.239C104.35 128.437 105.483 128.032 106.73 128.032C107.671 128.032 108.37 128.134 108.849 128.333L108.849 132L108.85 132ZM128.543 139.496C128.543 136.67 127.905 134.511 126.629 133.03C125.39 131.607 123.659 130.895 121.431 130.895C119.235 130.895 117.472 131.615 116.155 133.055C114.761 134.592 114.065 136.764 114.065 139.582C114.065 142.224 114.728 144.297 116.065 145.777C117.395 147.266 119.185 148.01 121.431 148.01C123.754 148.01 125.533 147.254 126.751 145.749C127.946 144.277 128.543 142.195 128.543 139.496M132.166 139.371C132.166 142.889 131.173 145.715 129.193 147.833C127.206 149.96 124.531 151.023 121.169 151.023C117.857 151.023 115.219 149.96 113.285 147.833C111.391 145.784 110.438 143.077 110.438 139.711C110.438 135.871 111.514 132.91 113.673 130.808C115.669 128.858 118.339 127.876 121.685 127.876C124.977 127.876 127.549 128.902 129.402 130.935C131.238 132.979 132.166 135.793 132.166 139.371M149.69 144.588C149.69 146.395 149.015 147.892 147.661 149.086C146.185 150.378 144.157 151.025 141.605 151.025C139.515 151.025 137.683 150.587 136.129 149.695L136.129 145.896C137.859 147.303 139.769 148.011 141.867 148.011C144.664 148.011 146.067 146.981 146.067 144.927C146.067 144.064 145.759 143.348 145.138 142.797C144.517 142.232 143.31 141.557 141.515 140.767C139.666 139.958 138.349 139.128 137.573 138.265C136.64 137.242 136.17 135.914 136.17 134.278C136.17 132.445 136.902 130.92 138.35 129.705C139.801 128.487 141.666 127.877 143.956 127.877C145.711 127.877 147.281 128.221 148.676 128.912L148.676 132.47C147.22 131.419 145.556 130.895 143.666 130.895C142.496 130.895 141.556 131.187 140.856 131.755C140.149 132.335 139.793 133.075 139.793 133.979C139.793 134.957 140.091 135.717 140.681 136.261C141.204 136.764 142.316 137.378 143.993 138.093C145.878 138.883 147.24 139.701 148.07 140.539C149.146 141.599 149.69 142.948 149.69 144.588M171.285 139.496C171.285 136.67 170.647 134.511 169.367 133.03C168.132 131.607 166.397 130.895 164.173 130.895C161.977 130.895 160.214 131.615 158.889 133.055C157.499 134.592 156.807 136.764 156.807 139.582C156.807 142.224 157.47 144.297 158.795 145.777C160.14 147.266 161.932 148.01 164.173 148.01C166.5 148.01 168.275 147.254 169.493 145.749C170.687 144.277 171.285 142.195 171.285 139.496M174.916 139.371C174.916 142.889 173.914 145.715 171.931 147.833C169.951 149.96 167.277 151.023 163.915 151.023C160.598 151.023 157.96 149.96 156.026 147.833C154.133 145.784 153.18 143.077 153.18 139.711C153.18 135.871 154.263 132.91 156.41 130.808C158.406 128.858 161.081 127.876 164.43 127.876C167.723 127.876 170.29 128.902 172.14 130.935C173.98 132.979 174.916 135.793 174.916 139.371M190.486 120.917C189.791 120.532 189.019 120.336 188.139 120.336C185.665 120.336 184.438 121.894 184.438 125.015L184.438 128.417L189.611 128.417L189.611 131.411L184.438 131.411L184.438 150.493L180.9 150.493L180.9 131.41L177.146 131.41L177.146 128.416L180.9 128.416L180.9 124.838C180.9 122.408 181.645 120.502 183.158 119.128C184.454 117.934 186.041 117.341 187.926 117.341C189.019 117.341 189.869 117.472 190.486 117.726L190.486 120.916L190.486 120.917ZM204.433 150.271C203.599 150.75 202.486 150.987 201.112 150.987C197.26 150.987 195.334 148.815 195.334 144.472L195.334 131.414L191.547 131.414L191.547 128.416L195.334 128.416L195.334 123.03C196.462 122.674 197.636 122.286 198.875 121.885L198.875 128.416L204.433 128.416L204.433 131.414L198.875 131.414L198.875 143.871C198.875 145.351 199.117 146.411 199.623 147.024C200.135 147.658 200.969 147.969 202.147 147.969C203.026 147.969 203.787 147.733 204.433 147.257C204.433 147.257 204.433 150.271 204.433 150.271Z" fill="#ffffff" fill-rule="evenodd" opacity="1" stroke="none"/>
<path d="M13.414 236.653C13.414 238.383 12.797 239.879 11.55 241.143C10.306 242.403 8.797 243.037 7.026 243.037C5.296 243.037 3.824 242.403 2.618 241.143C1.411 239.879 0.809999 238.383 0.809999 236.653C0.809999 234.873 1.411 233.373 2.618 232.13C3.824 230.882 5.296 230.265 7.026 230.265C8.797 230.265 10.306 230.891 11.55 232.155C12.797 233.418 13.414 234.919 13.414 236.653M92.531 241.737L81.007 241.737L39.174 177.133C38.1676 175.522 37.3184 173.818 36.638 172.045L36.294 172.045C36.592 173.775 36.744 177.488 36.744 183.177L36.744 241.737L27.244 241.737L27.244 160.684L39.574 160.684L80.156 224.27C81.772 226.793 82.876 228.6 83.436 229.689L83.662 229.689C83.285 227.357 83.089 223.382 83.089 217.771L83.089 160.684L92.532 160.684L92.532 241.737L92.531 241.737ZM153.436 241.737L110.478 241.737L110.478 160.684L151.571 160.684L151.571 169.273L119.971 169.273L119.971 196.235L149.253 196.235L149.253 204.828L119.97 204.828L119.97 233.144L153.435 233.144L153.435 241.737L153.436 241.737ZM218.595 169.274L195.248 169.274L195.248 241.738L185.751 241.738L185.751 169.274L162.36 169.274L162.36 160.681L218.596 160.681L218.596 169.274L218.595 169.274Z" fill="#ffffff" fill-rule="evenodd" opacity="1" stroke="none"/>
<g opacity="1">
<path d="M89.31 20.689C98.474 48.715 101.946 98.711 128.746 98.711C130.786 98.711 132.848 98.511 134.917 98.117C110.555 92.437 107.667 42.985 92.802 17.376C91.6162 18.4575 90.4517 19.562 89.309 20.689" fill="url(#LinearGradient)" fill-rule="evenodd" opacity="1" stroke="none"/>
<path d="M92.802 17.376C107.668 42.985 110.555 92.437 134.917 98.117C136.831 97.766 138.749 97.234 140.671 96.563C118.804 85.85 112.76 37.828 95.877 14.71C94.8349 15.5791 93.8097 16.4683 92.802 17.377" fill="url(#LinearGradient_2)" fill-rule="evenodd" opacity="1" stroke="none"/>
<path d="M114.221 2.145C112.185 2.145 110.119 2.345 108.046 2.739C102.623 3.761 97.114 6.096 91.561 9.629C93.078 11.126 94.521 12.839 95.879 14.709C101.527 10.022 107.138 6.559 112.729 4.477C114.769 3.71354 116.872 3.129 119.014 2.73C117.447 2.33579 115.837 2.13926 114.221 2.145" fill="#14559a" fill-rule="evenodd" opacity="1" stroke="none"/>
<path d="M157.741 86.687C160.071 84.8258 162.314 82.8594 164.465 80.794C155.153 52.898 151.82 2.18699 124.832 2.18699C122.902 2.18699 120.955 2.36699 119.012 2.72699C143.595 8.84099 146.744 62.325 157.742 86.687" fill="url(#LinearGradient_3)" fill-rule="evenodd" opacity="1" stroke="none"/>
<path d="M119.013 2.728C117.446 2.33431 115.836 2.13812 114.22 2.144L124.833 2.183C122.903 2.183 120.956 2.363 119.013 2.727" fill="#3092c4" fill-rule="evenodd" opacity="1" stroke="none"/>
<path d="M157.27 92.613C156.215 91.607 155.213 90.503 154.227 89.325C149.687 92.539 145.165 94.977 140.67 96.563C142.274 97.351 143.973 97.9297 145.725 98.285C147.142 98.572 148.585 98.7147 150.031 98.711C155.074 98.711 159.061 98.114 162.456 96.486C160.586 95.476 158.873 94.166 157.27 92.613" fill="#1969bc" fill-rule="evenodd" opacity="1" stroke="none"/>
<path d="M112.727 4.481C134.745 15.997 136.659 68.149 154.228 89.325C155.424 88.4803 156.594 87.6006 157.738 86.687C146.74 62.325 143.595 8.837 119.017 2.727C116.874 3.1304 114.77 3.71722 112.727 4.481" fill="url(#LinearGradient_4)" fill-rule="evenodd" opacity="1" stroke="none"/>
<path d="M95.877 14.71C112.759 37.828 118.804 85.849 140.671 96.563C145.166 94.977 149.689 92.539 154.228 89.325C136.659 68.149 134.745 15.997 112.727 4.481C107.137 6.559 101.525 10.022 95.877 14.709" fill="url(#LinearGradient_5)" fill-rule="evenodd" opacity="1" stroke="none"/>
<path d="M78.508 20.014C75.862 25.997 73.159 33.861 69.891 44.126C76.39 34.97 82.868 27.08 89.31 20.69C88.423 17.962 87.47 15.447 86.443 13.205C83.6775 15.3304 81.029 17.6037 78.509 20.015" fill="url(#LinearGradient_6)" fill-rule="evenodd" opacity="1" stroke="none"/>
<path d="M88.789 11.479C87.9984 12.0417 87.217 12.6171 86.445 13.205C87.472 15.446 88.42 17.961 89.308 20.689C90.4523 19.5641 91.6165 18.4596 92.8 17.376C91.553 15.233 90.228 13.254 88.789 11.479" fill="#2b74b1" fill-rule="evenodd" opacity="1" stroke="none"/>
<path d="M91.56 9.63C90.6226 10.2257 89.6984 10.8419 88.788 11.478C90.228 13.253 91.552 15.232 92.804 17.379C93.8095 16.4668 94.8348 15.5766 95.879 14.709C94.522 12.84 93.079 11.126 91.561 9.629" fill="#125a9e" fill-rule="evenodd" opacity="1" stroke="none"/>
<path d="M241.747 0.011C229.294 48.036 203.284 86.609 181.477 96.334L181.437 96.334C181.04 96.514 180.647 96.678 180.259 96.837C180.205 96.87 180.156 96.874 180.115 96.893C180.001 96.939 179.895 96.975 179.78 97.021C179.726 97.053 179.678 97.064 179.629 97.083C179.445 97.149 179.265 97.204 179.085 97.276C179.007 97.309 178.934 97.329 178.86 97.355C178.772 97.389 178.681 97.4184 178.59 97.443C178.508 97.475 178.422 97.499 178.328 97.535C178.25 97.567 178.168 97.581 178.095 97.613C177.935 97.659 177.789 97.698 177.629 97.753C177.563 97.753 177.502 97.789 177.433 97.807C177.334 97.839 177.223 97.862 177.117 97.892C177.044 97.924 176.983 97.935 176.905 97.951C176.795 97.983 176.672 98.013 176.561 98.039L176.144 98.131C177.143 98.4992 178.2 98.6848 179.264 98.679C199.942 98.679 220.79 61.623 255.287-2.77567e-06L241.742-2.77567e-06C241.742-2.77567e-06 241.747 0.0109972 241.747 0.011Z" fill="url(#LinearGradient_7)" fill-rule="evenodd" opacity="1" stroke="none"/>
<path d="M65.401 4.094C65.414 4.094 65.431 4.062 65.438 4.062C65.455 4.062 65.48 4.062 65.488 4.03L65.514 4.03C65.628 3.99 65.734 3.945 65.849 3.902C65.879 3.902 65.894 3.902 65.915 3.87C65.944 3.87 65.972 3.837 66.001 3.833C66.123 3.794 66.246 3.748 66.361 3.706L66.38 3.706C66.654 3.624 66.908 3.522 67.173 3.427C67.211 3.427 67.247 3.395 67.292 3.395C67.402 3.359 67.517 3.32 67.632 3.294C67.685 3.261 67.738 3.261 67.787 3.244C67.905 3.209 68.02 3.169 68.13 3.143C68.18 3.143 68.224 3.11 68.261 3.107C68.641 3.002 69.018 2.904 69.398 2.813C69.451 2.813 69.496 2.78 69.553 2.777C69.663 2.745 69.766 2.727 69.885 2.711C69.934 2.679 69.991 2.679 70.048 2.662C70.158 2.63 70.265 2.626 70.384 2.6L70.461 2.6C70.691 2.553 70.924 2.515 71.153 2.472L71.292 2.472C71.402 2.44 71.5 2.436 71.611 2.416C71.671 2.416 71.733 2.384 71.791 2.384C71.893 2.384 71.995 2.351 72.097 2.338C72.151 2.338 72.203 2.338 72.265 2.305C72.506 2.273 72.755 2.26 73.009 2.24C72.2779 2.1665 71.5438 2.12813 70.809 2.125C47.523 2.125 15.439 45.332 0.987005 101.286L3.772 101.286C8.397 93.038 12.552 85.235 16.352 77.91C26.473 38.277 47.089 11.249 65.402 4.08801" fill="url(#LinearGradient_8)" fill-rule="evenodd" opacity="1" stroke="none"/>
<path d="M78.509 20.014C81.0286 17.6026 83.6768 15.3293 86.442 13.204C85.8797 11.953 85.2491 10.7338 84.553 9.55199C82.423 12.137 80.476 15.548 78.509 20.014" fill="#0d82ca" fill-rule="evenodd" opacity="1" stroke="none"/>
<path d="M80.422 4.422C81.942 5.698 83.305 7.452 84.552 9.555C84.945 9.072 85.342 8.626 85.754 8.209C84.024 6.594 82.156 5.269 80.127 4.271C80.209 4.316 80.291 4.353 80.376 4.389C80.376 4.389 80.408 4.421 80.422 4.421" fill="#0d82ca" fill-rule="evenodd" opacity="1" stroke="none"/>
<path d="M16.35 77.915C37.584 36.998 47.644 11.102 65.401 4.092C47.092 11.258 26.472 38.286 16.351 77.915" fill="url(#LinearGradient_9)" fill-rule="evenodd" opacity="1" stroke="none"/>
<path d="M85.753 8.208C85.34 8.629 84.948 9.071 84.551 9.554C85.2475 10.7359 85.8794 11.9547 86.444 13.205C87.216 12.6174 87.9974 12.0423 88.788 11.48C87.854 10.3198 86.8399 9.22644 85.753 8.20801" fill="#127bca" fill-rule="evenodd" opacity="1" stroke="none"/>
<path d="M25.99 101.107C25.859 101.14 25.728 101.14 25.605 101.153L25.532 101.153C25.421 101.153 25.306 101.186 25.204 101.186L25.151 101.186C24.885 101.218 24.623 101.218 24.37 101.238L24.288 101.238C45.779 100.637 55.602 89.877 60.478 74.271C64.183 62.44 67.225 52.473 69.892 44.11C60.89 56.78 51.848 71.883 42.757 88.802C38.373 96.956 31.707 100.362 25.989 101.092" fill="url(#LinearGradient_10)" fill-rule="evenodd" opacity="1" stroke="none"/>
<path d="M25.99 101.099C31.707 100.371 38.373 96.969 42.757 88.809C51.848 71.895 60.895 56.788 69.887 44.118C73.159 33.848 75.859 25.988 78.509 20.005C60.584 37.067 42.589 65.437 25.989 101.091" fill="url(#LinearGradient_11)" fill-rule="evenodd" opacity="1" stroke="none"/>
<path d="M16.35 77.916C12.55 85.24 8.395 93.043 3.77 101.292L11.871 101.292C12.8941 93.4186 14.3898 85.6138 16.35 77.92" fill="#05a1e6" fill-rule="evenodd" opacity="1" stroke="none"/>
<path d="M72.264 2.326C72.198 2.326 72.149 2.358 72.092 2.358C71.994 2.391 71.892 2.391 71.789 2.401C71.729 2.401 71.671 2.401 71.609 2.434C71.499 2.466 71.397 2.469 71.29 2.49C71.241 2.49 71.192 2.49 71.151 2.522C70.918 2.561 70.689 2.604 70.461 2.643L70.383 2.643C70.264 2.676 70.157 2.693 70.047 2.709C69.99 2.741 69.933 2.741 69.879 2.754C69.769 2.787 69.659 2.8 69.552 2.82C69.495 2.852 69.45 2.852 69.397 2.855C69.017 2.947 68.64 3.045 68.26 3.15C68.22 3.15 68.178 3.182 68.129 3.189C68.015 3.221 67.904 3.254 67.785 3.29C67.736 3.323 67.679 3.323 67.63 3.336C67.516 3.36754 67.4027 3.40121 67.29 3.437C67.246 3.437 67.209 3.469 67.168 3.469C66.906 3.567 66.648 3.666 66.378 3.747C66.264 3.783 66.141 3.829 66.018 3.872C65.969 3.904 65.925 3.912 65.868 3.934C65.753 3.97 65.638 4.016 65.532 4.058C65.492 4.091 65.45 4.094 65.422 4.111C47.665 11.121 37.604 37.016 16.371 77.933C14.409 85.6267 12.9136 93.4319 11.893 101.306L13.03 101.306C16.232 101.306 17.136 101.273 20.82 101.273L24.391 101.273C24.644 101.241 24.906 101.241 25.171 101.22L25.221 101.22C25.331 101.22 25.441 101.188 25.548 101.188L25.626 101.188C25.744 101.188 25.879 101.156 26.01 101.142C42.61 65.488 60.604 37.118 78.53 20.056C80.5 15.591 82.443 12.18 84.57 9.59902C83.326 7.49702 81.964 5.73902 80.443 4.46302C80.443 4.46302 80.402 4.46302 80.399 4.43002C80.312 4.39502 80.231 4.35202 80.145 4.31002C80.059 4.26302 79.985 4.22702 79.895 4.18202C79.8114 4.14681 79.7296 4.10743 79.65 4.06402C79.544 4.03102 79.458 3.98502 79.364 3.94302C79.286 3.91002 79.217 3.87702 79.139 3.84502C78.9806 3.78353 78.8239 3.71784 78.669 3.64802C78.599 3.61602 78.534 3.59802 78.469 3.57302C78.35 3.52971 78.2323 3.48302 78.116 3.43302C78.059 3.40002 77.994 3.39302 77.928 3.37002C77.761 3.31402 77.597 3.25502 77.442 3.20302L77.401 3.20302C77.213 3.14102 77.029 3.09502 76.837 3.04302C76.792 3.01002 76.755 3.01002 76.71 3.00302C76.542 2.95802 76.395 2.91302 76.236 2.87002C76.196 2.87002 76.158 2.83702 76.126 2.83702C75.7349 2.73683 75.3403 2.65077 74.943 2.57902C74.903 2.57902 74.862 2.54602 74.821 2.54602C74.6517 2.51238 74.4813 2.48503 74.31 2.46402C74.268 2.43202 74.244 2.43202 74.208 2.43202C74.0066 2.40115 73.8046 2.37482 73.602 2.35302L73.496 2.35302C73.332 2.32102 73.181 2.31802 73.03 2.30102C72.772 2.33302 72.527 2.34702 72.285 2.37002" fill="url(#LinearGradient_12)" fill-rule="evenodd" opacity="1" stroke="none"/>
<path d="M193.104 26.598C189.019 39.685 185.71 50.481 182.831 59.364C194.041 43.938 205.083 24.532 215.598 2.138C203.333 5.99 196.789 14.808 193.104 26.598" fill="url(#LinearGradient_13)" fill-rule="evenodd" opacity="1" stroke="none"/>
<path d="M183.187 95.516C182.615 95.808 182.042 96.085 181.477 96.334C203.284 86.609 229.294 48.036 241.747 0.0110008L239.223 0.0110008C210.613 51.119 201.411 85.333 183.187 95.516" fill="url(#LinearGradient_14)" fill-rule="evenodd" opacity="1" stroke="none"/>
<path d="M168.948 91.223C173.692 85.432 177.557 75.588 182.833 59.364C176.747 67.724 170.621 74.909 164.49 80.77C164.49 80.802 164.49 80.802 164.458 80.822C165.795 84.83 167.263 88.367 168.936 91.222" fill="#079ae1" fill-rule="evenodd" opacity="1" stroke="none"/>
<path d="M168.948 91.223C167.333 93.193 165.623 94.695 163.721 95.807C163.304 96.049 162.883 96.277 162.454 96.487C164.517 97.6044 166.776 98.3162 169.107 98.584C169.467 98.62 169.823 98.653 170.195 98.679L170.261 98.679C170.428 98.679 170.604 98.679 170.784 98.711L172.559 98.711C172.624 98.711 172.692 98.711 172.758 98.679C172.885 98.679 173.019 98.679 173.15 98.646L173.344 98.646C173.478 98.646 173.625 98.614 173.769 98.6L173.801 98.6C173.844 98.6 173.89 98.568 173.932 98.568C174.082 98.535 174.24 98.522 174.386 98.499L174.521 98.499C174.687 98.467 174.86 98.446 175.031 98.414L175.114 98.414C175.457 98.348 175.792 98.284 176.132 98.198C173.318 97.168 170.962 94.738 168.934 91.278" fill="#1969bc" fill-rule="evenodd" opacity="1" stroke="none"/>
<path d="M128.746 98.711C130.787 98.711 132.848 98.511 134.918 98.114C136.832 97.767 138.75 97.234 140.672 96.564C142.275 97.3512 143.972 97.9299 145.722 98.286C147.141 98.5727 148.585 98.7151 150.033 98.711C150.033 98.711 128.746 98.711 128.746 98.711Z" fill="#1e5cb3" fill-rule="evenodd" opacity="1" stroke="none"/>
<path d="M150.033 98.711C155.072 98.711 159.063 98.114 162.453 96.486C164.517 97.6041 166.775 98.3166 169.107 98.585C169.467 98.62 169.823 98.653 170.195 98.679L170.261 98.679C170.428 98.679 170.604 98.679 170.784 98.712L171.396 98.712L150.019 98.712L150.033 98.712L150.033 98.711Z" fill="#1e5cb3" fill-rule="evenodd" opacity="1" stroke="none"/>
<path d="M171.408 98.711L172.574 98.711C172.643 98.711 172.708 98.711 172.774 98.679C172.901 98.679 173.035 98.679 173.171 98.646L173.364 98.646C173.498 98.646 173.645 98.614 173.785 98.601L173.821 98.601C173.864 98.601 173.906 98.569 173.949 98.569C174.099 98.536 174.256 98.523 174.402 98.499C174.452 98.499 174.491 98.499 174.543 98.467C174.71 98.435 174.883 98.418 175.055 98.386L175.137 98.386C175.48 98.32 175.815 98.255 176.154 98.17C177.153 98.5381 178.21 98.7237 179.274 98.718L171.414 98.75C171.414 98.75 171.408 98.711 171.408 98.711Z" fill="#1d60b5" fill-rule="evenodd" opacity="1" stroke="none"/>
<path d="M164.471 80.823L164.471 80.79C162.321 82.8555 160.077 84.8218 157.748 86.683C156.602 87.5955 155.431 88.4752 154.235 89.321C155.22 90.499 156.222 91.603 157.278 92.61C158.881 94.163 160.594 95.472 162.463 96.482C162.889 96.272 163.313 96.044 163.727 95.803C165.632 94.691 167.342 93.19 168.957 91.219C167.285 88.364 165.817 84.827 164.479 80.819" fill="#175fab" fill-rule="evenodd" opacity="1" stroke="none"/>
<path d="M231.232 0.011L218.531 0.011C217.845 0.044 217.178 0.067 216.52 0.109C216.209 0.776 215.89 1.443 215.583 2.114C205.069 24.508 194.027 43.914 182.817 59.34C177.545 75.563 173.677 85.407 168.933 91.198C170.961 94.658 173.321 97.091 176.126 98.122C176.208 98.089 176.274 98.089 176.347 98.072L176.393 98.072C176.442 98.072 176.495 98.04 176.548 98.04C176.662 98.007 176.785 97.987 176.9 97.952C176.973 97.919 177.034 97.916 177.108 97.892C177.215 97.86 177.325 97.837 177.423 97.811C177.489 97.778 177.554 97.768 177.619 97.755C177.783 97.702 177.93 97.663 178.086 97.614C178.159 97.582 178.237 97.554 178.319 97.535C178.409 97.503 178.499 97.48 178.581 97.441C178.675 97.408 178.769 97.391 178.851 97.356C178.924 97.323 179.001 97.303 179.071 97.274C179.255 97.208 179.435 97.153 179.619 97.081C179.669 97.081 179.718 97.035 179.771 97.025C179.881 96.979 179.996 96.943 180.106 96.894C180.146 96.861 180.196 96.858 180.249 96.841C180.634 96.681 181.03 96.517 181.427 96.338L181.468 96.338C182.044 96.0815 182.613 95.8087 183.174 95.52C201.401 85.337 210.604 51.123 239.214 0.0150014L231.223 0.0150014L231.233 0.0110014L231.232 0.011Z" fill="url(#LinearGradient_15)" fill-rule="evenodd" opacity="1" stroke="none"/>
<path d="M73.009 2.257C73.054 2.257 73.095 2.257 73.139 2.289C73.25 2.289 73.361 2.289 73.471 2.325L73.581 2.325C73.782 2.357 73.982 2.375 74.187 2.404C74.224 2.404 74.257 2.404 74.289 2.436C74.457 2.468 74.629 2.496 74.8 2.521C74.837 2.521 74.886 2.554 74.927 2.554C75.32 2.632 75.721 2.714 76.105 2.815C76.141 2.815 76.179 2.848 76.211 2.848C76.375 2.887 76.522 2.936 76.686 2.982C76.736 2.982 76.771 3.014 76.816 3.022C77.009 3.071 77.189 3.12 77.376 3.182C77.385 3.182 77.396 3.182 77.418 3.214C77.578 3.263 77.741 3.325 77.908 3.381C77.975 3.413 78.036 3.427 78.097 3.443C78.212 3.493 78.339 3.541 78.449 3.587C78.514 3.587 78.579 3.633 78.649 3.657C78.8 3.725 78.959 3.787 79.115 3.852C79.197 3.885 79.266 3.922 79.345 3.951C79.435 3.997 79.528 4.039 79.626 4.071C79.708 4.111 79.798 4.153 79.876 4.189C79.962 4.236 80.043 4.271 80.126 4.317C82.154 5.315 84.023 6.644 85.753 8.256C86.3725 7.60371 87.0393 6.99807 87.748 6.444C83.965 3.76 79.68 2.23 74.735 2.23C74.162 2.23 73.59 2.263 73.009 2.306" fill="#7dcbec" fill-rule="evenodd" opacity="1" stroke="none"/>
<path d="M85.753 8.208C86.8398 9.22644 87.854 10.3198 88.788 11.48C89.6974 10.8417 90.6216 10.2249 91.56 9.63C90.383 8.44472 89.1067 7.36244 87.745 6.395C87.0363 6.948 86.3705 7.55372 85.753 8.20699" fill="#5ec5ed" fill-rule="evenodd" opacity="1" stroke="none"/>
<path d="M73.008 2.256C73.588 2.207 74.161 2.186 74.734 2.186C79.678 2.186 83.964 3.716 87.747 6.396C91.739 3.246 96.564 2.146 103.267 2.146L70.807 2.146C71.557 2.146 72.288 2.191 73.008 2.256" fill="url(#LinearGradient_16)" fill-rule="evenodd" opacity="1" stroke="none"/>
<path d="M103.267 2.146C96.564 2.146 91.739 3.246 87.747 6.396C89.1069 7.36415 90.3822 8.44603 91.559 9.63C97.116 6.097 102.621 3.757 108.049 2.735C110.083 2.34819 112.149 2.15101 114.219 2.146C114.219 2.146 103.267 2.146 103.267 2.146Z" fill="url(#LinearGradient_17)" fill-rule="evenodd" opacity="1" stroke="none"/>
<path d="M182.831 59.372C185.714 50.482 189.015 39.689 193.108 26.598C196.798 14.803 203.328 5.986 215.593 2.138C215.917 1.479 216.223 0.800004 216.538 0.134004C196.544 1.332 187.199 11.503 182.496 26.565C174.272 52.861 169.29 69.907 164.493 80.769C170.62 74.913 176.746 67.723 182.831 59.372" fill="url(#LinearGradient_18)" fill-rule="evenodd" opacity="1" stroke="none"/>
<path d="M212.165 91.706L209.899 91.706L209.899 98.749L208.975 98.749L208.975 91.706L206.7 91.706L206.7 90.868L212.164 90.868L212.164 91.706L212.165 91.706ZM221.442 98.747L220.522 98.747L220.522 93.455C220.522 93.038 220.554 92.527 220.597 91.925C220.502 92.285 220.424 92.535 220.352 92.695L217.669 98.747L217.219 98.747L214.529 92.74C214.449 92.573 214.371 92.302 214.286 91.926L214.254 91.926C214.286 92.243 214.297 92.756 214.297 93.468L214.297 98.748L213.413 98.748L213.413 90.867L214.632 90.867L217.049 96.367C217.232 96.78 217.347 97.099 217.405 97.312L217.44 97.312C217.6 96.878 217.732 96.555 217.82 96.342L220.287 90.867L221.448 90.867L221.448 98.747C221.448 98.747 221.442 98.747 221.442 98.747Z" fill="#ffffff" fill-rule="evenodd" opacity="1" stroke="none"/>
</g>
</g>
</svg>
