<svg id="Ebene_1" data-name="Ebene 1" xmlns="http://www.w3.org/2000/svg" xmlns:xlink="http://www.w3.org/1999/xlink" viewBox="0 0 276.19 118.63"><defs><style>.cls-1{fill:none;}.cls-2{clip-path:url(#clip-path);}.cls-3{fill:#fff;fill-rule:evenodd;}.cls-4{fill:#f03;}</style><clipPath id="clip-path" transform="translate(-3.52 -1.52)"><rect class="cls-1" x="3" y="1" width="277.23" height="119.67"/></clipPath></defs><g class="cls-2"><path class="cls-3" d="M92.71,3.76c.61,1.12,1.17,1.17,2,3.58a13,13,0,0,1,.61,4.84c-.24,3.87-1.37,5.21-3.58,7.3C82.88,27.81,80.44,40,91.37,48.07c3.85,2.86,11.11,5.81,15.89,6,.57-1.07,3.27-3.18,4.4-4,9.14-6.58,23.41-7.58,33.49-2.59,2.7,1.34,3.54,2.45,5.32,3.33a15.64,15.64,0,0,0,7.17,1.39c4.84-.08,9.61-2.43,11.86-5.36.65-.84,1.18-1.8,1.78-2.61l5.51-7.31c7.63-9.62,23.12-25.29,40.63-28.08,10-1.6,18.76,1.16,25.29,8.33,4.94,5.43,8.18,12.79,9.81,20.22.59,2.65,3.4,3.84,4.67,1.27.58-1.18.14-2.22-.13-3.47-.53-2.4-1.1-4.56-1.81-6.76C244.65-4.28,216-4.83,191.67,14.26l-9.18,8a139.32,139.32,0,0,0-13.87,16.28,16.23,16.23,0,0,0-1.72,2.57c-2.17,5.39-10.49,5.93-15.56,4.54-2.93-.81-3.39-2.3-8.54-4.29-9.12-3.52-20.64-2.34-28.47,1.9A31.68,31.68,0,0,0,111.59,45c-6.51,4.34-2.89,5-7.81,4-4.6-.94-9.14-2.63-12.11-5-8.21-6.48-5.73-14.81,1.23-20.75,2.32-2,3.48-2.35,5.65-5.09,5.77-7.24,1.39-13.69-5.84-14.41" transform="translate(-3.52 -1.52)"/></g><g class="cls-2"><path class="cls-3" d="M179.94,80.33l.49.46c.1.14.13.22.24.39l7,10.65c.31.49.84,1.2,1.07,1.64l3.86,0V72.77h-4l0,13.38a15.17,15.17,0,0,0-1.08-1.62c-.36-.57-.67-1.08-1.07-1.66-1.48-2.17-5.59-8.4-6.56-10.12l-3.85,0,0,20.62a21.33,21.33,0,0,0,4,0Z" transform="translate(-3.52 -1.52)"/></g><g class="cls-2"><path class="cls-3" d="M123.67,80.2c.3.17,5.66,8.52,6.6,10,.36.55.75,1.12,1.08,1.65s.83,1.18,1.07,1.65l3.86,0V72.77h-4l0,13.38c-.11-.31-1.81-2.76-2.15-3.28-.73-1.14-1.45-2.26-2.19-3.37-1.07-1.63-3.54-5.27-4.37-6.74h-3.84V93.44h4Z" transform="translate(-3.52 -1.52)"/></g><g class="cls-2"><path class="cls-3" d="M215.79,26.36a31.9,31.9,0,0,0-3.06,4.56,27,27,0,0,0-2.28,5.38c-3.56,12.29,5.79,19,17.44,19.15,1.43,0,6.32.1,7.05-.61,2-1.91,2.5-6-.24-8.18-1.16-.94-1.37-.53-2.84-.22-4.39.92-9.29,1.34-13.49-.15-3.53-1.26-6.44-4-6.49-8.73a16.22,16.22,0,0,1,1.33-6.28,43.21,43.21,0,0,1,2.58-4.92" transform="translate(-3.52 -1.52)"/></g><g class="cls-2"><path class="cls-3" d="M140.89,93.43a54.73,54.73,0,0,0,6.66,0c2.25-.07,3.86-.26,5.43-1.26,4.52-2.89,5.59-9.56,3-14.43-2-3.76-4.72-4.62-8.5-4.92a46.14,46.14,0,0,0-6.65,0Zm4-3.92,0-12.81a9.21,9.21,0,0,1,6.1,1.16c3,2.18,3.09,8.21.25,10.63-1.2,1-4.3,1.29-6.32,1" transform="translate(-3.52 -1.52)"/></g><g class="cls-2"><path class="cls-3" d="M55.54,84.29a8.46,8.46,0,0,0,2.16-1.36,6.1,6.1,0,0,0-1.25-9.38c-2-1-8.58-1-9.48-.7L47,93.4a23.24,23.24,0,0,0,4,0V84.78c.56.11.62.55.85,1C53,88.14,55,91.41,55.93,93.47l4.36,0c-.73-1.6-4.59-8.33-4.75-9.15m-3.6-3.47-.92,0,0-4c1.86-.1,4.31-.22,4.42,1.84s-1.55,2.23-3.48,2.23" transform="translate(-3.52 -1.52)"/></g><g class="cls-2"><path class="cls-3" d="M220,14.72a31.75,31.75,0,0,0-14.58,4.76,29.34,29.34,0,0,0-5.55,4.16,2,2,0,0,0,.38,3.25c1.45.79,1.45.1,2.93-1.36a26.64,26.64,0,0,1,5.33-4.37,24.65,24.65,0,0,1,6.77-2.95c10.93-2.77,20.12,2.71,24.76,12.49a29.16,29.16,0,0,1,1.36,3.43c.42,1.24.47,3,2.12,2.77s1.33-1.75,1-3.2a29.66,29.66,0,0,0-1.07-3.84C240.34,21,232.13,13.75,220,14.72" transform="translate(-3.52 -1.52)"/></g><g class="cls-2"><path class="cls-3" d="M67.59,89.23l8.31,0,1.63,4.21,4.14,0-8-20.68h-4c-.65,2.11-4.83,12.55-6,15.5a46.53,46.53,0,0,0-1.94,5.2l4.1,0Zm1.54-3.93a60.71,60.71,0,0,1,2.63-6.8l2.55,6.8Z" transform="translate(-3.52 -1.52)"/></g><g class="cls-2"><path class="cls-3" d="M213.4,87.19C211.54,88.89,209,91,205,89.82c-6.69-1.95-6.35-11.54,0-13.38a8,8,0,0,1,4.93.27c2,.82,2.45,1.66,3.43,2.34.94-.72,1.82-1.86,2.76-2.5-.58-1.31-3.32-3-5.21-3.67a11.63,11.63,0,0,0-7.53,0c-10.19,3.58-9.28,17.47-.28,20.49a13.14,13.14,0,0,0,7.68.09c1.64-.52,4.49-2.31,5.23-3.5Z" transform="translate(-3.52 -1.52)"/></g><g class="cls-2"><path class="cls-3" d="M3.56,86.88c.17,2.57.48,3.78,1.94,5.17a6.82,6.82,0,0,0,5,1.94c4.44,0,6.81-2.71,7-7.11l0-14.12-4,0c-.15,3.28,0,6.88,0,10.2,0,3.06.73,7.05-3,7.11s-3-4.14-3-7.24c0-3.29.11-6.79,0-10.09h-4Z" transform="translate(-3.52 -1.52)"/></g><g class="cls-2"><path class="cls-3" d="M165,76.72l7.33,0,0-3.89-11.34,0c0,3.6-.16,18.09,0,20.68,1.75,0,10.24.09,11.33,0l0-3.9-7.31,0v-5.3l7.35,0,0-3.86H165Z" transform="translate(-3.52 -1.52)"/></g><g class="cls-2"><path class="cls-3" d="M108.72,76.72l7.33,0,0-3.9-11.34,0c0,3.69-.16,18,0,20.68l11.33,0,0-3.9-7.31,0v-5.3l7.35,0,0-3.86-7.32,0Z" transform="translate(-3.52 -1.52)"/></g><g class="cls-2"><path class="cls-3" d="M264.26,69.41c.25-.86.11-.82.85-1.22a7.93,7.93,0,0,0,3.37-9.89c-.91-2.21-2.58-3-4.05-4.23-.71-.6-1.53-1.31-2.27-1.87-1-.79-2.33-.48-2.07,1.15.16,1,3.77,3.14,4.48,3.81,1.69,1.59,2.11,6.41-1.32,8.66-1.8,1.18-1.57.09-2.17,2-2.53,8-5.41,16.89-8.14,24.73-1.12,3.2,3,3.59,3.7,2.29Z" transform="translate(-3.52 -1.52)"/></g><g class="cls-2"><path class="cls-3" d="M273.26,18.09A22.46,22.46,0,0,1,276.14,28c.11,5.41-2.66,10.08-7.22,11.81a12.63,12.63,0,0,1-2.52.7c-2.87.49-2.73-.5-3.7,1.1-2.07,3.42-.44,6.41,2.58,6.47A17.8,17.8,0,0,0,270,46.38c7.81-4.06,12-12.05,8.52-20.87a21,21,0,0,0-2.24-4.09,15.46,15.46,0,0,0-3-3.33" transform="translate(-3.52 -1.52)"/></g><g class="cls-2"><path class="cls-3" d="M218.08,72.79c.38.67.74,1.51,1.1,2.21l4.61,8.87c.72,1.34,0,6.81.36,9.6h4c.33-3.1-.42-8.16.41-9.69l5.62-11h-4.22L226.23,80c-.4-.3-3.48-6.38-3.87-7.24Z" transform="translate(-3.52 -1.52)"/></g><g class="cls-2"><polygon class="cls-3" points="87.12 75.22 90.74 75.24 90.77 91.95 94.82 91.91 94.83 75.22 98.58 75.2 98.58 71.24 87.08 71.25 87.12 75.22"/></g><g class="cls-2"><polygon class="cls-3" points="29.14 75.22 32.77 75.24 32.8 91.95 36.84 91.89 36.85 75.23 40.6 75.18 40.6 71.24 29.1 71.25 29.14 75.22"/></g><g class="cls-2"><polygon class="cls-3" points="18.55 91.95 28.26 91.94 28.19 88.12 22.53 88.09 22.52 71.25 18.51 71.25 18.55 91.95"/></g><g class="cls-2"><path class="cls-3" d="M250.84,61.44a25.17,25.17,0,0,0-6.09-8.14,1.3,1.3,0,0,0-1.9.28c-.41.79.55,1.32.94,1.73,1.48,1.59,4,4.84,4.41,7,.28,1.37.06,1.5-.61,2.16.73.8,2.7,2.49,3.78,1.5.85-.78-.13-3.58-.53-4.52" transform="translate(-3.52 -1.52)"/></g><g class="cls-2"><path class="cls-3" d="M239.38,60.45c-.14,2.66-.67,3.45,1.54,4.71a3.57,3.57,0,0,0,4.65-.78c-1.21-.69-5.28-3.73-6.19-3.93" transform="translate(-3.52 -1.52)"/></g><g class="cls-2"><path class="cls-4" d="M33.36,103.3H36a5,5,0,0,1,3.23.91,3.28,3.28,0,0,1,1.11,2.68,3.34,3.34,0,0,1-1.19,2.73,5.19,5.19,0,0,1-3.36,1H34.54v5.49H33.36Zm1.18,1v5.18h1.27a3.74,3.74,0,0,0,2.41-.69,2.4,2.4,0,0,0,.85-2A2.29,2.29,0,0,0,38.3,105a3.19,3.19,0,0,0-2.16-.67Z" transform="translate(-3.52 -1.52)"/></g><g class="cls-2"><path class="cls-4" d="M42.19,102.61h1.33v1.5H42.19Zm.09,4.3h1.17v9.18H42.28Z" transform="translate(-3.52 -1.52)"/></g><g class="cls-2"><path class="cls-4" d="M50.1,106.71A4,4,0,0,1,53.21,108a5.9,5.9,0,0,1,0,7A4.31,4.31,0,0,1,47,115a5.86,5.86,0,0,1,0-7,4,4,0,0,1,3.1-1.29m0,1a2.67,2.67,0,0,0-2.19,1,4.95,4.95,0,0,0,0,5.5,2.65,2.65,0,0,0,2.18,1,2.7,2.7,0,0,0,2.22-1,5,5,0,0,0,0-5.54,2.73,2.73,0,0,0-2.22-1" transform="translate(-3.52 -1.52)"/></g><g class="cls-2"><path class="cls-4" d="M64.12,110.48v5.61H63v-5.33a3.9,3.9,0,0,0-.53-2.27,1.94,1.94,0,0,0-1.68-.73,2.35,2.35,0,0,0-2,.94,4.21,4.21,0,0,0-.72,2.62v4.77H56.88v-9.18H58v1.74a3.55,3.55,0,0,1,1.28-1.46,3.47,3.47,0,0,1,1.85-.48,2.7,2.7,0,0,1,2.26,1,4.31,4.31,0,0,1,.78,2.8" transform="translate(-3.52 -1.52)"/></g><g class="cls-2"><path class="cls-4" d="M72.92,110.86a4.12,4.12,0,0,0-.76-2.37,2.22,2.22,0,0,0-1.82-.82,2.32,2.32,0,0,0-1.86.86,4,4,0,0,0-.89,2.33Zm1.13.18v.67H67.56a4,4,0,0,0,.91,2.68,3.1,3.1,0,0,0,2.41.93,4.74,4.74,0,0,0,1.23-.17,5.56,5.56,0,0,0,1.24-.5v1.15a7,7,0,0,1-1.25.39,7.14,7.14,0,0,1-1.33.13A4.07,4.07,0,0,1,67.58,115a5.25,5.25,0,0,1-1.15-3.59A5.07,5.07,0,0,1,67.55,108a3.66,3.66,0,0,1,2.92-1.31,3.21,3.21,0,0,1,2.61,1.17,4.87,4.87,0,0,1,1,3.18" transform="translate(-3.52 -1.52)"/></g><g class="cls-2"><path class="cls-4" d="M81.85,110.86a4.12,4.12,0,0,0-.77-2.37,2.2,2.2,0,0,0-1.82-.82,2.35,2.35,0,0,0-1.86.86,4.07,4.07,0,0,0-.89,2.33ZM83,111v.67H76.48a4.07,4.07,0,0,0,.91,2.68,3.1,3.1,0,0,0,2.41.93,4.74,4.74,0,0,0,1.23-.17,5.56,5.56,0,0,0,1.24-.5v1.15a6.72,6.72,0,0,1-1.25.39,7.14,7.14,0,0,1-1.33.13A4.05,4.05,0,0,1,76.51,115a5.2,5.2,0,0,1-1.16-3.59A5.12,5.12,0,0,1,76.47,108a3.66,3.66,0,0,1,2.92-1.31A3.2,3.2,0,0,1,82,107.86,4.81,4.81,0,0,1,83,111" transform="translate(-3.52 -1.52)"/></g><g class="cls-2"><path class="cls-4" d="M89.29,106.84V108l-.36-.06-.28,0a2.17,2.17,0,0,0-1.82.88,3.93,3.93,0,0,0-.65,2.42v4.88H85v-9.19h1.08v1.93a3.16,3.16,0,0,1,1-1.52,2.52,2.52,0,0,1,1.6-.54H89l.32,0" transform="translate(-3.52 -1.52)"/></g><g class="cls-2"><path class="cls-4" d="M91,102.61h1.33v1.5H91Zm.09,4.3h1.17v9.18H91Z" transform="translate(-3.52 -1.52)"/></g><g class="cls-2"><path class="cls-4" d="M102.59,110.48v5.61h-1.16v-5.33a3.81,3.81,0,0,0-.54-2.27,1.92,1.92,0,0,0-1.68-.73,2.37,2.37,0,0,0-2,.94,4.21,4.21,0,0,0-.72,2.62v4.77H95.34v-9.18h1.07v1.74a3.64,3.64,0,0,1,1.29-1.46,3.42,3.42,0,0,1,1.85-.48,2.72,2.72,0,0,1,2.26,1,4.36,4.36,0,0,1,.78,2.8" transform="translate(-3.52 -1.52)"/></g><g class="cls-2"><path class="cls-4" d="M111.79,108.63v-1.72h1.06v8.2a5.84,5.84,0,0,1-1,3.78,3.8,3.8,0,0,1-3.12,1.26,8.54,8.54,0,0,1-1.53-.14,6.21,6.21,0,0,1-1.39-.4l.09-1.23a5.76,5.76,0,0,0,1.38.55,5.14,5.14,0,0,0,1.4.19,2.84,2.84,0,0,0,2.31-1,4.25,4.25,0,0,0,.83-2.8v-1.19a4,4,0,0,1-1.3,1.48,3.16,3.16,0,0,1-1.77.51,3.3,3.3,0,0,1-2.71-1.29,5.39,5.39,0,0,1-1-3.43,5.26,5.26,0,0,1,1-3.43,3.34,3.34,0,0,1,2.75-1.27,3.14,3.14,0,0,1,3,1.92m-2.94-1a2.25,2.25,0,0,0-1.93,1,5.59,5.59,0,0,0,0,5.47,2.27,2.27,0,0,0,1.95,1,2.43,2.43,0,0,0,2-1,4.32,4.32,0,0,0,.78-2.69,4.55,4.55,0,0,0-.76-2.78,2.47,2.47,0,0,0-2.08-1" transform="translate(-3.52 -1.52)"/></g><g class="cls-2"><path class="cls-4" d="M123,104.18v2.73h2.14v.94H123v5.37a2.9,2.9,0,0,0,.3,1.55,1.11,1.11,0,0,0,1,.44,2,2,0,0,0,.47-.06,2.54,2.54,0,0,0,.47-.14v1a3.75,3.75,0,0,1-.58.13,3.86,3.86,0,0,1-.6,0,2.09,2.09,0,0,1-1.72-.63,3.51,3.51,0,0,1-.51-2.17v-5.57H120v-.94h1.88v-2.32Z" transform="translate(-3.52 -1.52)"/></g><g class="cls-2"><path class="cls-4" d="M127.36,102.35h1.16v6.15a3.35,3.35,0,0,1,1.25-1.35,3.57,3.57,0,0,1,1.79-.44,2.76,2.76,0,0,1,2.27,1,4.42,4.42,0,0,1,.77,2.81v5.61h-1.16v-5.33a3.9,3.9,0,0,0-.53-2.27,1.94,1.94,0,0,0-1.68-.73,2.35,2.35,0,0,0-2,.94,4.23,4.23,0,0,0-.72,2.62v4.77h-1.16V102.35Z" transform="translate(-3.52 -1.52)"/></g><g class="cls-2"><path class="cls-4" d="M143.4,110.86a4.12,4.12,0,0,0-.76-2.37,2.2,2.2,0,0,0-1.82-.82,2.32,2.32,0,0,0-1.86.86,4,4,0,0,0-.89,2.33Zm1.13.18v.67H138a4,4,0,0,0,.91,2.68,3.1,3.1,0,0,0,2.41.93,4.74,4.74,0,0,0,1.23-.17,5.56,5.56,0,0,0,1.24-.5v1.15a6.72,6.72,0,0,1-1.25.39,7.14,7.14,0,0,1-1.33.13,4.07,4.07,0,0,1-3.19-1.29,5.25,5.25,0,0,1-1.15-3.59A5.07,5.07,0,0,1,138,108a3.66,3.66,0,0,1,2.92-1.31,3.21,3.21,0,0,1,2.61,1.17,4.81,4.81,0,0,1,1,3.18" transform="translate(-3.52 -1.52)"/></g><g class="cls-2"><polygon class="cls-4" points="148.3 101.77 154.26 101.77 154.26 102.79 149.48 102.79 149.48 107.4 154.06 107.4 154.06 108.47 149.48 108.47 149.48 114.57 148.3 114.57 148.3 101.77"/></g><g class="cls-2"><path class="cls-4" d="M159.36,106.91h1.15v5.26a3.9,3.9,0,0,0,.53,2.27,1.94,1.94,0,0,0,1.68.73,2.29,2.29,0,0,0,2-1,5,5,0,0,0,.7-2.9v-4.36h1.16v9.18h-1.06v-1.81a3.69,3.69,0,0,1-1.28,1.46,3.48,3.48,0,0,1-1.86.48,2.74,2.74,0,0,1-2.26-1,4.45,4.45,0,0,1-.77-2.82Z" transform="translate(-3.52 -1.52)"/></g><g class="cls-2"><path class="cls-4" d="M171.72,104.18v2.73h2.14v.94h-2.14v5.37a2.9,2.9,0,0,0,.3,1.55,1.11,1.11,0,0,0,1,.44,2,2,0,0,0,.47-.06A2.54,2.54,0,0,0,174,115v1a3.75,3.75,0,0,1-.58.13,3.86,3.86,0,0,1-.6,0,2.09,2.09,0,0,1-1.72-.63,3.51,3.51,0,0,1-.51-2.17v-5.57h-1.88v-.94h1.88v-2.32Z" transform="translate(-3.52 -1.52)"/></g><g class="cls-2"><path class="cls-4" d="M175.85,106.91H177v5.26a3.81,3.81,0,0,0,.54,2.27,1.91,1.91,0,0,0,1.67.73,2.32,2.32,0,0,0,2-1,5.11,5.11,0,0,0,.69-2.9v-4.36h1.16v9.18H182v-1.81a3.69,3.69,0,0,1-1.28,1.46,3.48,3.48,0,0,1-1.86.48,2.7,2.7,0,0,1-2.25-1,4.39,4.39,0,0,1-.77-2.82v-5.53Z" transform="translate(-3.52 -1.52)"/></g><g class="cls-2"><path class="cls-4" d="M190.63,106.84V108l-.36-.06-.28,0a2.17,2.17,0,0,0-1.82.88,3.93,3.93,0,0,0-.66,2.42v4.88h-1.16v-9.19h1.07v1.93a3.24,3.24,0,0,1,1-1.52,2.5,2.5,0,0,1,1.6-.54h.26l.32,0" transform="translate(-3.52 -1.52)"/></g><g class="cls-2"><path class="cls-4" d="M198.24,110.86a4,4,0,0,0-.76-2.37,2.2,2.2,0,0,0-1.82-.82,2.34,2.34,0,0,0-1.86.86,4,4,0,0,0-.88,2.33Zm1.13.18v.67h-6.49a4.07,4.07,0,0,0,.91,2.68,3.1,3.1,0,0,0,2.41.93,4.74,4.74,0,0,0,1.23-.17,5.56,5.56,0,0,0,1.24-.5v1.15a6.72,6.72,0,0,1-1.25.39,7.14,7.14,0,0,1-1.33.13A4.07,4.07,0,0,1,192.9,115a5.25,5.25,0,0,1-1.15-3.59,5.12,5.12,0,0,1,1.12-3.44,3.66,3.66,0,0,1,2.92-1.31,3.21,3.21,0,0,1,2.61,1.17,4.81,4.81,0,0,1,1,3.18" transform="translate(-3.52 -1.52)"/></g></svg>