<svg width="40" height="40" viewBox="0 0 40 40" fill="none" xmlns="http://www.w3.org/2000/svg">
<path d="M24.3952 22.3724L0.513226 0.102469C0.376367 -0.0341564 0.239504 -0.0341564 0.102644 0.102469C-0.0342148 0.239095 -0.0342148 0.375724 0.102644 0.51235L22.4107 24.3535L22.4791 24.4218C23.0266 24.9683 23.9846 24.9683 24.532 24.4218C25.0795 23.8753 25.0795 22.9189 24.532 22.3724C24.4636 22.4407 24.4636 22.4407 24.3952 22.3724Z" fill="#3BBEFF"/>
<path d="M24.4634 14.0381L10.23 1.2636C10.0932 1.12698 9.9563 1.12698 9.81944 1.2636C9.68258 1.40023 9.68258 1.53684 9.81944 1.67346L22.6158 15.8825C22.6158 15.9508 22.6842 15.9508 22.6842 15.9508C23.1632 16.429 24.0528 16.429 24.5318 15.9508C25.0108 15.4727 25.0108 14.5846 24.5318 14.1064L24.4634 14.0381Z" fill="#3BBEFF"/>
<path d="M25.6269 4.54275C25.6269 4.54275 25.5585 4.54275 25.4901 4.61107C25.3532 4.67938 25.1479 4.81599 25.0111 5.08924C24.9426 5.22587 24.8058 5.43081 24.9426 5.77237C24.9426 5.84068 25.0111 6.04563 25.2164 6.18225C25.3532 6.25056 25.5585 6.25057 25.6954 6.25057C25.7638 6.25057 25.7638 6.18225 25.8322 6.18225C29.1853 5.02093 32.0593 5.08926 33.6332 6.66045C36.9863 10.0078 33.6332 18.7518 26.1744 26.1979C18.7155 33.644 9.95655 36.9913 6.6035 33.644C3.25045 30.2967 6.60349 21.5526 14.0623 14.1065L13.4465 13.4917C3.93474 22.9872 -0.307891 34.1222 3.93475 38.3576C8.17738 42.5929 19.3314 38.3576 28.8431 28.8621C38.3549 19.3666 42.5975 8.23165 38.3548 3.99626C35.8229 1.537 31.1013 1.94687 25.6269 4.54275Z" fill="#3BBEFF"/>
</svg>
