<svg width="40" height="40" viewBox="0 0 40 40" fill="none" xmlns="http://www.w3.org/2000/svg">
<path d="M24.3952 22.3724L0.513226 0.102469C0.376367 -0.0341564 0.239504 -0.0341564 0.102644 0.102469C-0.0342148 0.239095 -0.0342148 0.375724 0.102644 0.51235L22.4107 24.3535L22.4791 24.4218C23.0266 24.9683 23.9846 24.9683 24.532 24.4218C25.0795 23.8753 25.0795 22.9189 24.532 22.3724C24.4636 22.4407 24.4636 22.4407 24.3952 22.3724Z" fill="url(#paint0_linear_75_710)"/>
<path d="M24.4634 14.0381L10.23 1.2636C10.0932 1.12698 9.9563 1.12698 9.81944 1.2636C9.68258 1.40023 9.68258 1.53684 9.81944 1.67346L22.6158 15.8825C22.6158 15.9508 22.6842 15.9508 22.6842 15.9508C23.1632 16.429 24.0528 16.429 24.5318 15.9508C25.0108 15.4727 25.0108 14.5846 24.5318 14.1064L24.4634 14.0381Z" fill="url(#paint1_linear_75_710)"/>
<path d="M25.6265 4.54275C25.6265 4.54275 25.558 4.54275 25.4896 4.61107C25.3527 4.67938 25.1474 4.81599 25.0106 5.08924C24.9421 5.22587 24.8053 5.43081 24.9422 5.77237C24.9422 5.84068 25.0106 6.04563 25.2159 6.18225C25.3527 6.25056 25.558 6.25057 25.6949 6.25057C25.7633 6.25057 25.7633 6.18225 25.8317 6.18225C29.1848 5.02093 32.0588 5.08926 33.6327 6.66045C36.9858 10.0078 33.6327 18.7518 26.1739 26.1979C18.7151 33.644 9.95606 36.9913 6.60301 33.644C3.24996 30.2967 6.603 21.5526 14.0618 14.1065L13.446 13.4917C3.93425 22.9872 -0.308379 34.1222 3.93426 38.3576C8.17689 42.5929 19.3309 38.3576 28.8427 28.8621C38.3544 19.3666 42.597 8.23165 38.3543 3.99626C35.8224 1.537 31.1008 1.94687 25.6265 4.54275Z" fill="url(#paint2_linear_75_710)"/>
<defs>
<linearGradient id="paint0_linear_75_710" x1="25.2544" y1="-0.620793" x2="-1.1391" y2="23.7073" gradientUnits="userSpaceOnUse">
<stop stop-color="#EEAD13"/>
<stop offset="0.473958" stop-color="#FFE1A8"/>
<stop offset="1" stop-color="#EEA63A"/>
</linearGradient>
<linearGradient id="paint1_linear_75_710" x1="25.0807" y1="0.782424" x2="8.98328" y2="15.5795" gradientUnits="userSpaceOnUse">
<stop stop-color="#EEAD13"/>
<stop offset="0.473958" stop-color="#FFE1A8"/>
<stop offset="1" stop-color="#EEA63A"/>
</linearGradient>
<linearGradient id="paint2_linear_75_710" x1="40.4709" y1="1.41586" x2="0.469148" y2="38.1892" gradientUnits="userSpaceOnUse">
<stop stop-color="#EEAD13"/>
<stop offset="0.473958" stop-color="#FFE1A8"/>
<stop offset="1" stop-color="#EEA63A"/>
</linearGradient>
</defs>
</svg>
