<svg width="163" height="46" fill="none" xmlns="http://www.w3.org/2000/svg"><path d="M54.015 4.795c0 .584.216 1.007.65 1.271.432.32 1.355.65 2.767.989 1.488.357 2.57.847 3.249 1.468.696.622 1.045 1.516 1.045 2.684 0 1.224-.462 2.212-1.384 2.965-.904.754-2.09 1.13-3.56 1.13-2.127 0-4.048-.753-5.761-2.26l1.468-1.75c1.431 1.223 2.881 1.835 4.35 1.835.735 0 1.328-.16 1.78-.48.452-.339.678-.772.678-1.299 0-.527-.208-.942-.622-1.243-.395-.301-1.11-.574-2.146-.819-1.79-.414-3.032-.904-3.729-1.469-.81-.621-1.214-1.572-1.214-2.852 0-1.243.452-2.213 1.355-2.91.904-.715 2.062-1.073 3.474-1.073 1.902 0 3.531.555 4.887 1.666L60.059 4.4c-.414-.377-.97-.678-1.666-.904a6.192 6.192 0 00-2.062-.367c-.697 0-1.262.15-1.695.452-.414.282-.621.687-.621 1.214zM72.29 1.32h2.344v13.813H72.29V1.32zm24.191 0h2.317v13.813h-2.514L88.46 5.049v10.084h-2.344V1.32h2.344l8.022 10.31V1.32zm23.416 7.09h2.316v4.717c-1.299 1.45-3.163 2.175-5.592 2.175-2.053 0-3.766-.678-5.141-2.033-1.374-1.356-2.062-3.05-2.062-5.084s.697-3.738 2.09-5.113c1.413-1.393 3.117-2.09 5.113-2.09 1.996 0 3.653.574 4.971 1.723l-1.243 1.78c-.96-.81-2.137-1.215-3.53-1.215-1.413 0-2.599.461-3.559 1.384-.942.904-1.413 2.08-1.413 3.53 0 1.45.452 2.627 1.356 3.531.923.885 2.062 1.328 3.418 1.328 1.318 0 2.41-.283 3.276-.848V8.41zm13.08 6.723V1.32h2.344v11.61h6.299v2.203h-8.643zM161.549 1.32v2.176h-7.372v3.672h6.609V9.23h-6.609v3.7h7.598v2.203h-9.943V1.32h9.717zM52.15 39.106V25.294h5.367c1.94 0 3.258.415 3.954 1.243.622.697.933 1.497.933 2.4 0 1.093-.34 1.903-1.017 2.43-.226.17-.565.358-1.017.565.866.188 1.544.574 2.034 1.158.508.584.762 1.309.762 2.175 0 1.092-.395 2.005-1.186 2.74-.772.734-2.034 1.101-3.785 1.101H52.15zm2.345-8.078h2.937c1.695 0 2.542-.574 2.542-1.723 0-.659-.207-1.13-.621-1.412-.395-.302-1.026-.452-1.892-.452h-2.966v3.587zm0 5.932h3.644c.903 0 1.572-.142 2.005-.424.433-.301.65-.81.65-1.525 0-1.224-.98-1.836-2.938-1.836h-3.361v3.785zm25.125-2.882l3.615 5.028H80.27l-3.304-4.66h-3.05v4.66H71.57V25.294h5.14c2.09 0 3.588.358 4.492 1.073.922.697 1.384 1.836 1.384 3.418 0 2.279-.989 3.71-2.966 4.293zm-2.825-1.723c1.3 0 2.194-.197 2.684-.593.49-.395.734-1.064.734-2.005 0-.904-.245-1.516-.734-1.836-.49-.339-1.366-.508-2.627-.508h-2.938v4.942h2.881zm21.033-5.281c-1.375 0-2.533.49-3.475 1.468-.941.98-1.412 2.166-1.412 3.56 0 1.393.47 2.58 1.412 3.558.942.96 2.1 1.44 3.475 1.44 1.374 0 2.532-.48 3.474-1.44.941-.979 1.412-2.165 1.412-3.559 0-1.393-.471-2.58-1.412-3.559-.942-.979-2.1-1.468-3.474-1.468zm0 12.173c-2.072 0-3.804-.678-5.198-2.033-1.393-1.375-2.09-3.079-2.09-5.113 0-2.033.697-3.728 2.09-5.084 1.394-1.374 3.126-2.062 5.198-2.062 2.071 0 3.803.688 5.197 2.062 1.393 1.356 2.09 3.05 2.09 5.084s-.706 3.729-2.118 5.084c-1.413 1.375-3.136 2.062-5.17 2.062zm15.711-13.953h2.345v6.723l6.327-6.723h2.937l-5.536 6.045 5.621 7.767h-2.768l-4.576-6.044-2.005 2.175v3.87h-2.345V25.293zm29.109 0v2.175h-7.372v3.672h6.61v2.062h-6.61v3.7h7.598v2.203h-9.942V25.294h9.716zm16.737 8.784L163 39.106h-2.966l-3.304-4.66h-3.051v4.66h-2.344V25.294h5.14c2.09 0 3.587.358 4.491 1.073.923.697 1.384 1.836 1.384 3.418 0 2.279-.988 3.71-2.965 4.293zm-2.825-1.723c1.299 0 2.194-.197 2.683-.593.49-.395.735-1.064.735-2.005 0-.904-.245-1.516-.735-1.836-.489-.339-1.365-.508-2.626-.508h-2.938v4.942h2.881z" fill="#000"/><g clip-path="url(#clip0)"><path d="M31.964 23.824C31.964 29.78 0 29.78 0 35.736v9.927c0-5.956 31.964-5.956 31.964-11.912v-9.927z" fill="url(#paint0_linear)"/><path d="M31.964 0C31.964 5.956 0 5.956 0 11.912v9.927c0-5.956 31.964-5.956 31.964-11.912V0z" fill="url(#paint1_linear)"/><path d="M0 11.912c0 5.956 31.964 5.956 31.964 11.912v9.927C31.964 27.795 0 27.795 0 21.84v-9.927z" fill="url(#paint2_linear)"/></g><defs><linearGradient id="paint0_linear" x1="0" y1="34.744" x2="31.964" y2="34.744" gradientUnits="userSpaceOnUse"><stop stop-color="#fff"/><stop offset="1"/></linearGradient><linearGradient id="paint1_linear" x1="0" y1="10.919" x2="31.964" y2="10.919" gradientUnits="userSpaceOnUse"><stop stop-color="#fff"/><stop offset="1"/></linearGradient><linearGradient id="paint2_linear" x1="31.964" y1="22.832" x2="0" y2="22.832" gradientUnits="userSpaceOnUse"><stop stop-color="#fff"/><stop offset="1"/></linearGradient><clipPath id="clip0"><path fill="#fff" d="M0 0h31.964v45.663H0z"/></clipPath></defs></svg>