<?xml version="1.0" encoding="UTF-8" standalone="no"?> <!-- Created with Vectornator (http://vectornator.io/) --><!DOCTYPE svg PUBLIC "-//W3C//DTD SVG 1.1//EN" "http://www.w3.org/Graphics/SVG/1.1/DTD/svg11.dtd">
<svg height="100%" stroke-miterlimit="10" style="fill-rule:nonzero;clip-rule:evenodd;stroke-linecap:round;stroke-linejoin:round;" version="1.1" viewBox="0 0 164 46" width="100%" xml:space="preserve" xmlns="http://www.w3.org/2000/svg" xmlns:vectornator="http://vectornator.io" xmlns:xlink="http://www.w3.org/1999/xlink">
<metadata>
<vectornator:setting key="IsTimeLapseWatermarkDisabled" value="false"/>
<vectornator:setting key="UndoHistoryDisabled" value="true"/>
<vectornator:setting key="VNDimensionsVisible" value="true"/>
<vectornator:setting key="VNSnapToGuides" value="true"/>
<vectornator:setting key="WDCMYKEnabledKey" value="false"/>
<vectornator:setting key="WDDisplayWhiteBackground" value="false"/>
<vectornator:setting key="WDDynamicGuides" value="false"/>
<vectornator:setting key="WDGuidesVisible" value="true"/>
<vectornator:setting key="WDIsolateActiveLayer" value="false"/>
<vectornator:setting key="WDOutlineMode" value="false"/>
<vectornator:setting key="WDRulersVisible" value="true"/>
<vectornator:setting key="WDSnapToEdges" value="false"/>
<vectornator:setting key="WDSnapToGrid" value="false"/>
<vectornator:setting key="WDSnapToPoints" value="false"/>
<vectornator:setting key="WDUnits" value="Pixels"/>
</metadata>
<defs>
<path d="M0.651335 0.17815L32.6153 0.17815L32.6153 45.8411L0.651335 45.8411L0.651335 0.17815Z" fill-rule="evenodd" id="Fill"/>
<linearGradient gradientTransform="matrix(1 0 0 1 0.651335 0.17815)" gradientUnits="userSpaceOnUse" id="LinearGradient" x1="0" x2="31.964" y1="34.744" y2="34.744">
<stop offset="0" stop-color="#ffffff"/>
<stop offset="1" stop-color="#000000"/>
</linearGradient>
<linearGradient gradientTransform="matrix(1 0 0 1 0.651335 0.17815)" gradientUnits="userSpaceOnUse" id="LinearGradient_2" x1="0" x2="31.964" y1="10.919" y2="10.919">
<stop offset="0" stop-color="#ffffff"/>
<stop offset="1" stop-color="#000000"/>
</linearGradient>
<linearGradient gradientTransform="matrix(1 0 0 1 0.651335 0.17815)" gradientUnits="userSpaceOnUse" id="LinearGradient_3" x1="31.964" x2="0" y1="22.832" y2="22.832">
<stop offset="0" stop-color="#ffffff"/>
<stop offset="1" stop-color="#000000"/>
</linearGradient>
</defs>
<g id="Layer-1" vectornator:layerName="Layer 1">
<path d="M54.6663 7.69015C54.6663 8.27415 54.8823 8.69715 55.3163 8.96115C55.7483 9.28115 56.6713 9.61115 58.0833 9.95015C59.5713 10.3071 60.6533 10.7971 61.3323 11.4181C62.0283 12.0401 62.3773 12.9341 62.3773 14.1021C62.3773 15.3261 61.9153 16.3141 60.9933 17.0671C60.0893 17.8211 58.9033 18.1971 57.4333 18.1971C55.3063 18.1971 53.3853 17.4441 51.6723 15.9371L53.1403 14.1871C54.5713 15.4101 56.0213 16.0221 57.4903 16.0221C58.2253 16.0221 58.8183 15.8621 59.2703 15.5421C59.7223 15.2031 59.9483 14.7701 59.9483 14.2431C59.9483 13.7161 59.7403 13.3011 59.3263 13.0001C58.9313 12.6991 58.2163 12.4261 57.1803 12.1811C55.3903 11.7671 54.1483 11.2771 53.4513 10.7121C52.6413 10.0911 52.2373 9.14015 52.2373 7.86015C52.2373 6.61715 52.6893 5.64715 53.5923 4.95015C54.4963 4.23515 55.6543 3.87715 57.0663 3.87715C58.9683 3.87715 60.5973 4.43215 61.9533 5.54315L60.7103 7.29515C60.2963 6.91815 59.7403 6.61715 59.0443 6.39115C58.3828 6.15262 57.6855 6.02851 56.9823 6.02415C56.2853 6.02415 55.7203 6.17415 55.2873 6.47615C54.8733 6.75815 54.6663 7.16315 54.6663 7.69015ZM72.9413 4.21515L75.2853 4.21515L75.2853 18.0281L72.9413 18.0281L72.9413 4.21515ZM97.1323 4.21515L99.4493 4.21515L99.4493 18.0281L96.9353 18.0281L89.1113 7.94415L89.1113 18.0281L86.7673 18.0281L86.7673 4.21515L89.1113 4.21515L97.1333 14.5252L97.1333 4.21515L97.1323 4.21515ZM120.548 11.3051L122.864 11.3051L122.864 16.0221C121.565 17.4721 119.701 18.1971 117.272 18.1971C115.219 18.1971 113.506 17.5191 112.131 16.1641C110.757 14.8081 110.069 13.1141 110.069 11.0801C110.069 9.04615 110.766 7.34215 112.159 5.96715C113.572 4.57415 115.276 3.87715 117.272 3.87715C119.268 3.87715 120.925 4.45115 122.243 5.60015L121 7.38015C120.04 6.57015 118.863 6.16515 117.47 6.16515C116.057 6.16515 114.871 6.62615 113.911 7.54915C112.969 8.45315 112.498 9.62915 112.498 11.0791C112.498 12.5291 112.95 13.7061 113.854 14.6101C114.777 15.4951 115.916 15.9381 117.272 15.9381C118.59 15.9381 119.682 15.6551 120.548 15.0901C120.548 15.0901 120.548 11.3051 120.548 11.3051ZM133.628 18.0281L133.628 4.21515L135.972 4.21515L135.972 15.8251L142.271 15.8251L142.271 18.0281C142.271 18.0281 133.628 18.0281 133.628 18.0281ZM162.2 4.21515L162.2 6.39115L154.828 6.39115L154.828 10.0631L161.437 10.0631L161.437 12.1251L154.828 12.1251L154.828 15.8251L162.426 15.8251L162.426 18.0281L152.483 18.0281L152.483 4.21515L162.2 4.21515ZM52.8013 42.0011L52.8013 28.1892L58.1683 28.1892C60.1083 28.1892 61.4263 28.6042 62.1223 29.4322C62.7443 30.1292 63.0553 30.9292 63.0553 31.8322C63.0553 32.9252 62.7153 33.7352 62.0383 34.2622C61.8123 34.4322 61.4733 34.6202 61.0213 34.8272C61.8873 35.0152 62.5653 35.4012 63.0553 35.9852C63.5633 36.5692 63.8173 37.2942 63.8173 38.1602C63.8173 39.2522 63.4223 40.1652 62.6313 40.9002C61.8593 41.6342 60.5973 42.0012 58.8463 42.0012C58.8463 42.0012 52.8013 42.0012 52.8013 42.0011ZM55.1463 33.9231L58.0833 33.9231C59.7783 33.9231 60.6253 33.3491 60.6253 32.2001C60.6253 31.5411 60.4183 31.0701 60.0043 30.7881C59.6093 30.4861 58.9783 30.3361 58.1123 30.3361L55.1463 30.3361C55.1463 30.3361 55.1463 33.9231 55.1463 33.9231ZM55.1463 39.8551L58.7903 39.8551C59.6933 39.8551 60.3623 39.7131 60.7953 39.4311C61.2283 39.1301 61.4453 38.6211 61.4453 37.9061C61.4453 36.6821 60.4653 36.0701 58.5073 36.0701L55.1463 36.0701C55.1463 36.0701 55.1463 39.8551 55.1463 39.8551ZM80.2713 36.9731L83.8863 42.0011L80.9213 42.0011L77.6173 37.3411L74.5673 37.3411L74.5673 42.0011L72.2213 42.0011L72.2213 28.1892L77.3613 28.1892C79.4513 28.1892 80.9493 28.5472 81.8533 29.2622C82.7753 29.9592 83.2373 31.0982 83.2373 32.6802C83.2373 34.9592 82.2483 36.3902 80.2713 36.9731ZM77.4463 35.2501C78.7463 35.2501 79.6403 35.0531 80.1303 34.6571C80.6203 34.2621 80.8643 33.5931 80.8643 32.6521C80.8643 31.7481 80.6193 31.1361 80.1303 30.8161C79.6403 30.4771 78.7643 30.3081 77.5033 30.3081L74.5653 30.3081L74.5653 35.2501C74.5653 35.2501 77.4463 35.2501 77.4463 35.2501ZM98.4793 29.9691C97.1043 29.9691 95.9463 30.4591 95.0043 31.4371C94.0633 32.4171 93.5923 33.6031 93.5923 34.9971C93.5923 36.3901 94.0623 37.5771 95.0043 38.5551C95.9463 39.5151 97.1043 39.9951 98.4793 39.9951C99.8533 39.9951 101.011 39.5151 101.953 38.5551C102.894 37.5761 103.365 36.3901 103.365 34.9961C103.365 33.6031 102.894 32.4161 101.953 31.4371C101.011 30.4581 99.8533 29.9691 98.4793 29.9691ZM98.4793 42.1421C96.4073 42.1421 94.6753 41.4641 93.2813 40.1091C91.8883 38.7341 91.1913 37.0301 91.1913 34.9961C91.1913 32.9631 91.8883 31.2681 93.2813 29.9121C94.6753 28.5381 96.4073 27.8501 98.4793 27.8501C100.55 27.8501 102.282 28.5381 103.676 29.9121C105.069 31.2681 105.766 32.9621 105.766 34.9961C105.766 37.0301 105.06 38.7251 103.648 40.0801C102.235 41.4551 100.512 42.1421 98.4783 42.1421L98.4793 42.1421ZM114.19 28.1891L116.535 28.1891L116.535 34.9121L122.862 28.1891L125.799 28.1891L120.263 34.2341L125.884 42.0011L123.116 42.0011L118.54 35.9571L116.535 38.1321L116.535 42.0021L114.19 42.0021L114.19 28.1881L114.19 28.1891ZM143.299 28.1891L143.299 30.3641L135.927 30.3641L135.927 34.0361L142.537 34.0361L142.537 36.0981L135.927 36.0981L135.927 39.7981L143.525 39.7981L143.525 42.0011L133.583 42.0011L133.583 28.1892C133.583 28.1892 143.299 28.1892 143.299 28.1891ZM160.036 36.9731L163.651 42.0011L160.685 42.0011L157.381 37.3411L154.33 37.3411L154.33 42.0011L151.986 42.0011L151.986 28.1892L157.126 28.1892C159.216 28.1892 160.713 28.5472 161.617 29.2622C162.54 29.9592 163.001 31.0982 163.001 32.6802C163.001 34.9592 162.013 36.3902 160.036 36.9731ZM157.211 35.2501C158.51 35.2501 159.405 35.0531 159.894 34.6571C160.384 34.2621 160.629 33.5931 160.629 32.6521C160.629 31.7481 160.384 31.1361 159.894 30.8161C159.405 30.4771 158.529 30.3081 157.268 30.3081L154.33 30.3081L154.33 35.2501C154.33 35.2501 157.211 35.2501 157.211 35.2501Z" fill="#ffffff" fill-rule="evenodd" opacity="1" stroke="none"/>
<g opacity="1" vectornator:mask="#Fill">
<clipPath id="ClipPath">
<use overflow="#visible" xlink:href="#Fill"/>
</clipPath>
<g clip-path="url(#ClipPath)">
<path d="M32.6153 24.0021C32.6153 29.9582 0.651335 29.9582 0.651335 35.9142L0.651335 45.8412C0.651335 39.8852 32.6153 39.8852 32.6153 33.9292C32.6153 33.9292 32.6153 24.0022 32.6153 24.0021Z" fill="url(#LinearGradient)" fill-rule="evenodd" opacity="1" stroke="none"/>
<path d="M32.6153 0.17815C32.6153 6.13415 0.651335 6.13415 0.651335 12.0902L0.651335 22.0172C0.651335 16.0612 32.6153 16.0612 32.6153 10.1052L32.6153 0.17815Z" fill="url(#LinearGradient_2)" fill-rule="evenodd" opacity="1" stroke="none"/>
<path d="M0.651335 12.0902C0.651335 18.0461 32.6153 18.0461 32.6153 24.0021L32.6153 33.9291C32.6153 27.9732 0.651335 27.9732 0.651335 22.0182L0.651335 12.0912L0.651335 12.0902Z" fill="url(#LinearGradient_3)" fill-rule="evenodd" opacity="1" stroke="none"/>
</g>
</g>
</g>
</svg>
