<?xml version="1.0" encoding="UTF-8" standalone="no"?>
<!DOCTYPE svg PUBLIC "-//W3C//DTD SVG 1.1//EN" "http://www.w3.org/Graphics/SVG/1.1/DTD/svg11.dtd">

<!-- Created with Vectornator (http://vectornator.io/) -->
<svg height="100%" stroke-miterlimit="10" style="fill-rule:nonzero;clip-rule:evenodd;stroke-linecap:round;stroke-linejoin:round;" version="1.1" viewBox="0 0 24 24" width="100%" xml:space="preserve" xmlns="http://www.w3.org/2000/svg" xmlns:vectornator="http://vectornator.io" xmlns:xlink="http://www.w3.org/1999/xlink">
<metadata>
<vectornator:setting key="IsTimeLapseWatermarkDisabled" value="false"/>
<vectornator:setting key="UndoHistoryDisabled" value="true"/>
<vectornator:setting key="VNDimensionsVisible" value="true"/>
<vectornator:setting key="VNSnapToGuides" value="true"/>
<vectornator:setting key="WDCMYKEnabledKey" value="false"/>
<vectornator:setting key="WDDisplayWhiteBackground" value="false"/>
<vectornator:setting key="WDDynamicGuides" value="false"/>
<vectornator:setting key="WDGuidesVisible" value="true"/>
<vectornator:setting key="WDIsolateActiveLayer" value="false"/>
<vectornator:setting key="WDOutlineMode" value="false"/>
<vectornator:setting key="WDRulersVisible" value="true"/>
<vectornator:setting key="WDSnapToEdges" value="false"/>
<vectornator:setting key="WDSnapToGrid" value="false"/>
<vectornator:setting key="WDSnapToPoints" value="false"/>
<vectornator:setting key="WDUnits" value="Pixels"/>
</metadata>
<defs/>
<g id="Layer-1" vectornator:layerName="Layer 1">
<path d="M7.00473 0.265244L13.1237 0.29219L8.57391 16.164L11.5484 16.1726L8.95029 23.2323L16.2105 13.0249L13.1894 12.6395C15.7209 5.93226 15.7511 6.01537 15.7511 6.01537C15.7511 6.01537 19.5664 6.54402 20.7971 9.03078C22.0277 11.5175 22.0058 14.618 19.5997 18.1264C16.973 22.2975 11.9225 23.5399 10.8683 23.6314C9.07557 23.787 7.08387 23.8438 6.25258 23.5631C5.42129 23.2824 3.77909 22.2757 2.87557 20.3558C1.97205 18.4358 2.63026 16.4384 2.63026 16.4384L7.00473 0.265244Z" fill="#ef672b" fill-rule="evenodd" opacity="1" stroke="none"/>
</g>
</svg>
