<svg id="Layer_1" data-name="Layer 1" xmlns="http://www.w3.org/2000/svg" viewBox="0 0 291.91 56.5"><defs><style>.cls-1{fill:#fff;}</style></defs><path class="cls-1" d="M61.8,4.7A59,59,0,0,0,46.7,0c-.6,1.2-1.4,2.7-1.9,4A58.4,58.4,0,0,0,28.1,4a29.86,29.86,0,0,0-2-4A60.24,60.24,0,0,0,11,4.7C1.6,19.1-1,33.2.3,47a60.37,60.37,0,0,0,18.5,9.5,47.12,47.12,0,0,0,4-6.5,32.31,32.31,0,0,1-6.2-3l1.5-1.2a42.62,42.62,0,0,0,36.9,0L56.5,47a39.25,39.25,0,0,1-6.2,3,39.09,39.09,0,0,0,4,6.5A59.29,59.29,0,0,0,72.8,47,63.77,63.77,0,0,0,61.8,4.7ZM24.4,38.5c-3.6,0-6.6-3.4-6.6-7.5s2.9-7.5,6.6-7.5S31,26.9,31,31,28,38.5,24.4,38.5Zm24.2,0C45,38.5,42,35.1,42,31s2.9-7.5,6.6-7.5,6.6,3.4,6.6,7.5S52.3,38.5,48.6,38.5Z" transform="translate(0.01)"/><path class="cls-1" d="M98,14.4h15.7a22.85,22.85,0,0,1,9.6,1.8,13.32,13.32,0,0,1,5.9,5,13.83,13.83,0,0,1,1.9,7.4,14.39,14.39,0,0,1-2,7.4,14,14,0,0,1-6.2,5.2,24.3,24.3,0,0,1-10.3,1.9H98Zm14.4,21.4a8.88,8.88,0,0,0,5.9-1.9,6.86,6.86,0,0,0,2-5.3,7,7,0,0,0-1.8-5,7.62,7.62,0,0,0-5.5-1.9h-4.9V35.8Z" transform="translate(0.01)"/><path class="cls-1" d="M154.5,43.1a22.31,22.31,0,0,1-5.9-2.5V33.8a17.45,17.45,0,0,0,5.3,2.6,20.8,20.8,0,0,0,6.4,1,4.32,4.32,0,0,0,2.2-.4c.5-.3.7-.6.7-.9a1.16,1.16,0,0,0-.4-1,3.43,3.43,0,0,0-1.6-.7l-4.8-1.1a13.53,13.53,0,0,1-5.9-2.7,6.11,6.11,0,0,1-1.7-4.6,5.92,5.92,0,0,1,1.5-4.1,9.36,9.36,0,0,1,4.3-2.7,21.8,21.8,0,0,1,6.6-1,24.54,24.54,0,0,1,6.2.7,17.05,17.05,0,0,1,4.7,1.9v6.4a14.52,14.52,0,0,0-4.4-1.8,17,17,0,0,0-5.1-.7c-2.5,0-3.8.4-3.8,1.3a1,1,0,0,0,.6.9,9.3,9.3,0,0,0,2.1.6l4,.7a13,13,0,0,1,5.9,2.4,6.65,6.65,0,0,1,1.9,5.2,6.78,6.78,0,0,1-3.2,5.9c-2.1,1.4-5.1,2.2-9.1,2.2A24.61,24.61,0,0,1,154.5,43.1Z" transform="translate(0.01)"/><path class="cls-1" d="M183,42.2a11.91,11.91,0,0,1-5.2-4.7,12.51,12.51,0,0,1-1.7-6.6,12.1,12.1,0,0,1,1.8-6.6,12.62,12.62,0,0,1,5.3-4.6,19.34,19.34,0,0,1,8.4-1.7,18.11,18.11,0,0,1,10,2.6v7.5a10.15,10.15,0,0,0-3.3-1.6,12.9,12.9,0,0,0-4-.6,10.57,10.57,0,0,0-5.8,1.4,4.15,4.15,0,0,0-2.1,3.7,4.23,4.23,0,0,0,2,3.6,10.71,10.71,0,0,0,5.9,1.4,13.86,13.86,0,0,0,4-.6,15.17,15.17,0,0,0,3.4-1.5v7.3a19.19,19.19,0,0,1-10.2,2.7A18.16,18.16,0,0,1,183,42.2Z" transform="translate(0.01)"/><path class="cls-1" d="M211.5,42.2a12.18,12.18,0,0,1-5.3-4.7,12.69,12.69,0,0,1-1.8-6.7,12.1,12.1,0,0,1,1.8-6.6,12.42,12.42,0,0,1,5.3-4.5,21.81,21.81,0,0,1,16.4,0,12.42,12.42,0,0,1,5.3,4.5,12.1,12.1,0,0,1,1.8,6.6,12.69,12.69,0,0,1-1.8,6.7,12.18,12.18,0,0,1-5.3,4.7,19,19,0,0,1-8.2,1.7A17.69,17.69,0,0,1,211.5,42.2Zm12.2-7.3a5.35,5.35,0,0,0,1.5-4,5.28,5.28,0,0,0-1.5-3.9,5.35,5.35,0,0,0-4-1.5,5.2,5.2,0,0,0-4,1.5,5.28,5.28,0,0,0-1.5,3.9,5.51,5.51,0,0,0,1.5,4,6.08,6.08,0,0,0,8,0Z" transform="translate(0.01)"/><path class="cls-1" d="M259.2,19.6v8.9a6.78,6.78,0,0,0-4-1,6.18,6.18,0,0,0-4.9,2c-1.2,1.3-1.7,3.4-1.7,6.2v7.5h-9.8v-24h9.6v7.6a12.76,12.76,0,0,1,2.6-6.2,6,6,0,0,1,4.6-2A6.53,6.53,0,0,1,259.2,19.6Z" transform="translate(0.01)"/><path class="cls-1" d="M291.9,13.6V43.1H282V37.7a9.16,9.16,0,0,1-3.8,4.6,12.25,12.25,0,0,1-6.3,1.6,10.24,10.24,0,0,1-9.6-6.3,15.1,15.1,0,0,1-1.3-6.5,15.06,15.06,0,0,1,1.4-6.8,11.79,11.79,0,0,1,4.1-4.7,11.41,11.41,0,0,1,6.1-1.7c4.7,0,7.8,2.1,9.4,6.2V13.6ZM280.6,34.8a5.28,5.28,0,0,0,1.5-3.9,4.82,4.82,0,0,0-1.5-3.7,5.3,5.3,0,0,0-4-1.4,5.35,5.35,0,0,0-4,1.5,5,5,0,0,0-1.5,3.8,5,5,0,0,0,1.5,3.8,5.28,5.28,0,0,0,3.9,1.5A6.3,6.3,0,0,0,280.6,34.8Z" transform="translate(0.01)"/><path class="cls-1" d="M139.4,21.7a4.71,4.71,0,0,0,4.9-4.5,4.92,4.92,0,0,0-9.8,0A4.71,4.71,0,0,0,139.4,21.7Z" transform="translate(0.01)"/><path class="cls-1" d="M134.5,24.8a12.36,12.36,0,0,0,9.8,0V43.3h-9.8Z" transform="translate(0.01)"/></svg>