<?xml version="1.0" standalone="no"?>
<!DOCTYPE svg PUBLIC "-//W3C//DTD SVG 20010904//EN"
 "http://www.w3.org/TR/2001/REC-SVG-20010904/DTD/svg10.dtd">
<svg version="1.0" xmlns="http://www.w3.org/2000/svg"
 width="165.000000pt" height="165.000000pt" viewBox="0 0 165.000000 165.000000"
 preserveAspectRatio="xMidYMid meet">
<metadata>
Created by potrace 1.14, written by Peter Selinger 2001-2017
</metadata>
<g transform="translate(0.000000,165.000000) scale(0.100000,-0.100000)"
fill="#000000" stroke="none">
<path d="M5 1640 c-3 -6 20 -38 52 -72 32 -34 67 -72 78 -83 47 -51 232 -250
254 -274 13 -14 48 -52 78 -83 l54 -57 -86 -103 c-154 -183 -251 -346 -311
-523 -21 -63 -27 -100 -27 -175 -1 -87 1 -100 27 -147 59 -108 171 -143 340
-108 437 90 1009 636 1152 1100 36 118 39 248 6 311 -26 51 -79 98 -129 115
-63 21 -190 15 -280 -14 -125 -41 -173 -64 -182 -89 -16 -41 3 -48 80 -28 87
23 181 21 232 -4 78 -39 111 -150 81 -279 -18 -75 -87 -223 -145 -308 -23 -35
-45 -66 -48 -69 -4 -3 -20 -23 -36 -45 -52 -69 -228 -238 -312 -298 -182 -130
-323 -189 -454 -191 -76 -1 -90 2 -125 25 -23 16 -48 45 -62 73 -70 139 40
418 266 678 l40 47 119 -126 c65 -70 132 -141 148 -158 17 -18 47 -50 67 -73
45 -49 73 -65 102 -58 26 6 49 50 41 75 -4 14 -171 177 -257 253 -11 9 -74 68
-141 130 -66 62 -133 124 -148 138 -96 89 -265 247 -334 312 -106 101 -132
121 -140 108z"/>
<path d="M400 1591 c0 -4 10 -19 23 -33 12 -13 58 -64 102 -113 44 -48 88 -97
98 -109 10 -12 51 -57 90 -100 40 -43 79 -87 87 -96 149 -169 158 -176 195
-157 46 23 46 57 2 100 -19 17 -56 52 -83 76 -120 106 -187 166 -218 195 -18
17 -66 60 -106 96 -41 36 -94 84 -119 107 -43 40 -71 54 -71 34z"/>
</g>
</svg>
